<?xml version="1.0" standalone="no"?>
<!DOCTYPE svg PUBLIC "-//W3C//DTD SVG 1.1//EN" "http://www.w3.org/Graphics/SVG/1.1/DTD/svg11.dtd" >
<svg xmlns="http://www.w3.org/2000/svg" xmlns:xlink="http://www.w3.org/1999/xlink" version="1.1">
<metadata>
Created by FontForge 20160407 at Wed Dec 28 10:53:09 2016
 By ecidi
</metadata>
<defs>
<font id="iconfont" horiz-adv-x="1024" >
  <font-face 
    font-family="iconfont"
    font-weight="500"
    font-stretch="normal"
    units-per-em="1024"
    panose-1="2 0 6 3 0 0 0 0 0 0"
    ascent="896"
    descent="-128"
    x-height="792"
    bbox="-5.12012 -133.12 1029.12 901.12"
    underline-thickness="50"
    underline-position="-150"
    unicode-range="U+0078-E975"
  />
<missing-glyph horiz-adv-x="374" 
d="M34 0v682h272v-682h-272zM68 34h204v614h-204v-614z" />
    <glyph glyph-name=".notdef" horiz-adv-x="374" 
d="M34 0v682h272v-682h-272zM68 34h204v614h-204v-614z" />
    <glyph glyph-name=".null" horiz-adv-x="0" 
 />
    <glyph glyph-name="nonmarkingreturn" horiz-adv-x="341" 
 />
    <glyph glyph-name="x" unicode="x" horiz-adv-x="1001" 
d="M281 543q-27 -1 -53 -1h-83q-18 0 -36.5 -6t-32.5 -18.5t-23 -32t-9 -45.5v-76h912v41q0 16 -0.5 30t-0.5 18q0 13 -5 29t-17 29.5t-31.5 22.5t-49.5 9h-133v-97h-438v97zM955 310v-52q0 -23 0.5 -52t0.5 -58t-10.5 -47.5t-26 -30t-33 -16t-31.5 -4.5q-14 -1 -29.5 -0.5
t-29.5 0.5h-32l-45 128h-439l-44 -128h-29h-34q-20 0 -45 1q-25 0 -41 9.5t-25.5 23t-13.5 29.5t-4 30v167h911zM163 247q-12 0 -21 -8.5t-9 -21.5t9 -21.5t21 -8.5q13 0 22 8.5t9 21.5t-9 21.5t-22 8.5zM316 123h368q6 -20 11 -39q5 -17 9.5 -34.5t9.5 -30.5q9 -26 -2 -38
t-34 -12h-36h-64h-80h-81h-67h-37q-14 0 -21.5 4t-9.5 10.5t-1 14.5t3 15t7.5 25t10.5 37q6 22 14 48zM336 498v228q0 11 2.5 23t10 21.5t20.5 15.5t34 6h188q31 0 51.5 -14.5t20.5 -52.5v-227h-327z" />
    <glyph glyph-name="uniE600" unicode="&#xe600;" 
d="M1008.94 358.954h-138.836v-393.27h-224.263v281.723h-224.327v-281.723h-226.6v393.27h-148.18l481.101 481.101zM1008.94 358.954zM927.632 751.117v-233.675l-232.442 232.506v1.16895h232.442zM927.632 751.117z" />
    <glyph glyph-name="uniE601" unicode="&#xe601;" 
d="M752.029 444.223q-13.2723 68.4691 -62.9132 118.111q-49.6409 49.6415 -118.111 62.8777v218.717q158.196 -15.4123 271.261 -128.468t128.477 -271.237h-218.714zM752.029 444.223zM483.978 625.211q-68.4786 -13.2378 -118.134 -62.8826
q-49.6555 -49.6448 -62.905 -118.106h-218.685q15.4126 158.182 128.465 271.242q113.053 113.06 271.258 128.497v-218.751zM483.978 625.211zM571.005 176.18q68.4772 13.2368 118.115 62.8705q49.6381 49.6337 62.9091 118.122h218.715
q-15.4358 -158.205 -128.491 -271.25q-113.055 -113.045 -271.249 -128.455v218.713zM571.005 176.18zM302.938 357.171q13.2699 -68.4814 62.913 -118.123q49.6431 -49.6414 118.126 -62.9123v-218.67q-158.187 15.3875 -271.249 128.444
q-113.062 113.056 -128.475 271.261h218.685zM302.938 357.171z" />
    <glyph glyph-name="uniE602" unicode="&#xe602;" 
d="M802.058 841.28l166.588 -166.589l-715.147 -715.147l-166.589 166.589zM200.072 87.3633l14.2852 14.2803l-64.9287 64.9287l-14.2852 -14.2793zM263.701 150.993l14.2852 14.2842l-64.9287 64.9287l-14.2852 -14.2842zM327.145 214.436l14.2861 14.2861
l-64.9297 64.9287l-14.2852 -14.2861zM390.775 278.064l14.2842 14.2852l-64.9287 64.9287l-14.2842 -14.2852zM454.222 341.514l14.2852 14.2842l-64.9287 64.9287l-14.2852 -14.2842zM517.852 405.143l14.2852 14.2842l-64.9297 64.9287l-14.2842 -14.2832z
M581.481 468.587l14.2842 14.2852l-64.9287 64.9287l-14.2842 -14.2842zM644.93 532.22l14.2842 14.2852l-64.9287 64.9287l-14.2842 -14.2852zM708.558 595.849l14.2832 14.2861l-64.9287 64.9287l-14.2832 -14.2861zM772.002 659.292l14.2842 14.2842l-64.9287 64.9287
l-14.2842 -14.2842zM770.707 787.856l64.9287 -64.9297l14.2803 14.2803l-64.9297 64.9287zM770.707 787.856zM836.932 254.139l48.791 -211.114l-211.115 48.792l-124.663 124.662l162.323 162.323zM836.932 254.139zM251.237 839.682l253.168 -253.167l-162.264 -162.264
l-253.168 253.167zM251.237 839.682z" />
    <glyph glyph-name="uniE603" unicode="&#xe603;" 
d="M532.458 -25.0381q-57.8448 0 -127.483 37.6348q-41.6325 22.4992 -128.443 85.1025q-8.73654 6.3016 -12.1377 8.75q-103.892 74.7719 -147.359 136.103l-0.635742 0.899414q-10.101 14.1462 -5.96484 43.3457l0.30957 358.993q-2.19704 20.0037 7.34473 35.6055
q11.832 19.3178 44.9297 44.6183t71.874 42.1132q38.6148 16.7598 65.775 26.4565q27.1603 9.69666 88.7081 20.7085q61.5478 11.0118 131.45 11.0118q98.1521 0 203.685 -28.0811q76.0486 -20.2309 117.626 -41.9902q4.46232 -2.33165 14.7441 -7.61621
q62.9199 -32.3155 76.5303 -49.9756q16.1763 -20.9876 12.7197 -54.3906v-321.044q0 -7.87061 0.0117188 -14.5078q0.0686468 -46.1459 -4.27539 -54.8721q-14.9384 -29.8126 -73.0059 -73.7109q-28.5529 -21.542 -62.6572 -21.542q-34.1959 0 -62.1543 18.1875
l-165.498 84.2393q-19.0348 -25.8215 -61.4863 -52.3789q-43.5393 -27.2601 -133.596 -46.5869l-8.21582 -1.76172l-27.3252 57.2881l15.4863 1.17578q26.8303 2.15876 66.3672 15.1406q78.7895 25.929 106.097 67.4658q20.0883 30.5868 19.7725 98.1895l-0.0458984 10.6934
h55.6445l-0.373047 -11.0078q-1.14665 -32.5942 -3.13965 -52.8584q-1.59962 -16.074 -7.40039 -36.708q64.0799 -29.441 115.757 -54.1426q13.421 -6.42171 33.5986 -16.4814q39.8488 -19.8613 54.4316 -19.8613q1.90639 0 4.02246 0.125q15.0659 0.893176 37.5517 19.1352
q22.4858 18.242 40.2012 39.2417v381.396q0 3.3125 -0.0849609 4.19922q-1.5168 1.47469 -12.335 8.29297l-2.57715 1.62305q-22.7176 14.3411 -53.3304 29.1481q-30.6128 14.807 -100.7 34.9616q-70.0867 20.1547 -145.444 26.2418q-31.0517 2.50488 -61.1494 2.50488
q-164.674 0 -281.572 -68.3652q-46.0101 -26.8854 -59.9121 -48.2598v-376.386q13.2652 -18.3001 18.4707 -24.3682q4.4794 -5.23177 20.8412 -20.533q16.3618 -15.3012 52.9562 -45.1203q36.5944 -29.8191 76.0561 -57.0831q71.6325 -49.506 116.824 -70.6153
q45.1912 -21.1093 79.5317 -21.1064q22.7242 0 51.3877 9.03906q28.3595 8.92434 67.1437 34.648q38.7842 25.7237 54.0261 38.519q15.2419 12.7953 25.1789 21.7646l8.20703 7.48633l37.3164 -44.6045l-6.35645 -6.87598q-6.8906 -7.44644 -33.2393 -28.4404
l-1.86816 -1.4834q-90.364 -71.9792 -169.47 -86.2979q-16.5032 -2.99121 -33.3408 -2.99121zM256.739 196.876l4.79883 7.88379q21.3061 34.9184 36.2607 87.8926q14.8367 52.4728 15.2275 165.139l0.137695 228.635l10.6758 -0.0419922h3.59375q104.629 0 228.1 5.44727
q85.3899 3.77594 207.626 14.5557l8.19141 0.725586l20.2744 -56.6846l-14.1143 -0.889648q-91.233 -5.87861 -168.689 -9.97168v-55.6357h176.542v-54.6582h-176.541v-49.9814h142.495v-203.879h-57.4082v151.423h-225.461v-151.422h-57.4551v203.879h140.393v49.9814
h-170.156v54.6582h170.157v53.0898q-64.7484 -2.29078 -180.759 -5.0791v-126.856q0 -155.981 -16.7275 -225.705q-14.1732 -59.0426 -44.3242 -110.103l-6.33398 -10.7012zM256.739 196.876z" />
    <glyph glyph-name="uniE604" unicode="&#xe604;" 
d="M205.184 697.674q0 7.69886 5.53594 13.1325q5.53594 5.43366 13.3059 5.37138h597.569q7.76148 0 13.2592 -5.42948q5.49768 -5.42948 5.49768 -13.0744v-121.785q0 -7.64495 -5.49768 -13.0744q-5.49768 -5.42948 -13.2592 -5.42948h-597.569
q-7.8322 0 -13.337 5.40141q-5.5048 5.40141 -5.5048 13.1025v121.785zM962.14 463.436l0.0878906 -121.79q0 -7.65083 -5.51239 -13.0769q-5.51239 -5.42605 -13.3294 -5.42605h-719.361q-7.81711 0 -13.3299 5.4261q-5.51283 5.4261 -5.51283 13.0768v121.79
q0 7.6341 5.53663 13.0661q5.53663 5.43197 13.3061 5.43197h719.277q7.81756 0 13.3277 -5.42462q5.51017 -5.42462 5.51017 -13.0734zM697.853 229.105v0v-121.79q0 -7.64183 -5.49759 -13.0704q-5.49759 -5.42859 -13.2592 -5.42859h-455.071
q-7.81663 0 -13.3297 5.42574q-5.51307 5.42574 -5.51307 13.0733v121.79q0 7.63626 5.53661 13.0696q5.53661 5.43334 13.3062 5.43334h455.071q7.76197 0 13.2594 -5.42923q5.49744 -5.42923 5.49744 -13.0737zM155.702 -3.43848q0 -12.7883 -9.16354 -21.7979
q-9.16354 -9.00952 -22.1529 -9.00879q-12.9902 0 -22.1538 9.0092q-9.16361 9.0092 -9.16361 21.7974v807.458q0 12.7403 9.1709 21.7735q9.1709 9.03316 22.1465 9.03316q12.9749 0 22.1457 -9.0332q9.17074 -9.0332 9.17074 -21.7734v-807.458zM155.702 -3.43848z" />
    <glyph glyph-name="uniE605" unicode="&#xe605;" 
d="M880.862 788.572l55.5439 6.91602l-0.661133 -62.4648q-2.13944 -187.838 -30.4542 -305.615q-28.3148 -117.777 -84.2811 -213.769q-57.0024 -97.573 -129.541 -164.642q-72.5382 -67.069 -152.752 -87.8472l-11.2188 -2.89355l-11.2139 2.89355
q-80.2757 20.7782 -152.822 87.8466q-72.5465 67.0684 -129.515 164.643q-55.9485 96.0919 -84.2524 213.835q-28.3039 117.743 -30.4429 305.549l-0.661133 62.4648l55.5488 -6.91602q79.645 -9.95972 162.294 1.4082q85.9815 11.857 174.59 46.6904l16.4746 6.49805
l16.3916 -6.49805q88.7413 -34.8341 174.59 -46.6904q82.7512 -11.3651 162.383 -1.4082zM503.41 244.688l283.036 302.988l-48.0977 44.4512l-235.847 -251.994l-144.297 148.765l-47.2676 -45.3633zM503.41 244.688z" />
    <glyph glyph-name="uniE606" unicode="&#xe606;" 
d="M527.864 632.621q79.9623 0 136.628 -56.6642q56.6658 -56.6642 56.6658 -136.625q0 -79.9615 -56.6659 -136.627q-56.6659 -56.6657 -136.628 -56.6657q-79.9611 0 -136.626 56.6656q-56.6644 56.6656 -56.6644 136.627q0 79.9608 56.6643 136.625
q56.6643 56.6641 136.626 56.6641zM527.864 318.007q50.1765 0 85.7532 35.6099q35.5767 35.6099 35.5759 85.8022q0 50.1852 -35.5723 85.7572q-35.5723 35.5719 -85.7568 35.5719q-50.1747 0 -85.75 -35.612q-35.5752 -35.612 -35.5752 -85.804
q0 -50.1833 35.5709 -85.7543q35.5709 -35.5709 85.7543 -35.5709zM527.864 318.007zM852.762 616.315q27.6984 -65.3797 27.8311 -137.371q0 -96.3117 -48.6543 -178.842q-47.1224 -80.0294 -127.621 -126.645q-24.2492 -14.1069 -51.4023 -24.373l42.6299 -108.298
h7.71094q14.8882 0 25.4344 -10.5469q10.5461 -10.5469 10.5461 -25.4375q0 -14.8873 -10.5463 -25.4334q-10.5463 -10.5461 -25.4342 -10.5461h-31.7295h-0.44043h-312.314q-14.8906 0 -25.438 10.546q-10.5474 10.546 -10.5474 25.4335q0 14.8908 10.5472 25.4376
q10.5472 10.5468 25.4382 10.5468h6.82129l42.8076 106.261q-9.79107 3.59513 -17.8135 7q-63.3947 26.8805 -112.112 75.5967q-48.9415 48.943 -75.5977 112.113q-27.7383 65.4919 -27.7383 137.277q0 71.7889 27.7383 137.28q26.7239 63.3309 75.5117 112.111
q48.9422 48.9436 112.107 75.5977q65.4954 27.7373 137.282 27.7373q71.7893 0 137.277 -27.7373q63.387 -26.8773 112.113 -75.5977q48.9504 -48.9578 75.5928 -112.111zM808.54 479.035q0 116.463 -82.334 198.519q-82.2517 82.2441 -198.52 82.2441
q-116.271 0 -198.52 -82.2441q-82.2441 -82.2426 -82.2441 -198.52q0 -116.281 82.2441 -198.52q82.2427 -82.2412 198.52 -82.2412q75.4076 0 140.382 37.5762q63.9482 36.8264 101.742 100.854q38.7295 65.6732 38.7295 142.331zM618.172 40.873l-35.4492 89.8682
q-26.9897 -4.34668 -54.9482 -4.34668q-24.4157 0 -48.917 3.37109l-35.8076 -88.8926h175.122zM618.172 40.873zM529.017 642.016q-23.0654 0 -39.4497 16.3841q-16.3843 16.3841 -16.3843 39.4489q0 23.0652 16.3856 39.4501t39.4483 16.3849q23.0662 0 39.4506 -16.3844
t16.3844 -39.4506q0 -23.0648 -16.3845 -39.4489q-16.3845 -16.3841 -39.4505 -16.3841zM529.017 699.446q-1.58925 0 -1.59277 -1.59766q0 -1.59668 1.59277 -1.59668q1.59766 0 1.59766 1.59668q0 1.59766 -1.59766 1.59766zM529.017 699.446z" />
    <glyph glyph-name="uniE607" unicode="&#xe607;" 
d="M572.852 314.422q33.7221 -14.9205 54.4406 -46.1216q20.7186 -31.2012 20.7186 -69.2856q0 -52.2543 -36.948 -89.2019q-36.948 -36.9476 -89.2015 -36.9476t-89.2015 36.9476q-36.948 36.9476 -36.948 89.2019q0 38.0839 20.7153 69.2838
q20.7153 31.1998 54.4341 46.1235v306.25q0 15.9917 14.937 27.2991q14.937 11.3074 36.0581 11.3074q21.1233 0 36.0592 -11.3071q14.9359 -11.3071 14.9359 -27.2993v-306.25zM572.852 314.422zM691.542 378.873q77.5851 -73.1372 77.582 -179.859
q0 -102.423 -72.4209 -174.843q-72.4247 -72.4277 -174.843 -72.4277q-102.423 0 -174.848 72.4277q-72.4219 72.4249 -72.4219 174.843q0 106.722 77.583 179.854v333.314q0 59.3098 53.1396 99.543q48.86 36.9922 116.542 36.9922q67.6787 0 116.548 -36.9922
q53.1387 -40.2336 53.1387 -99.543v-333.31zM521.861 18.2295q74.7637 0 127.773 53.0099q53.0097 53.0099 53.0097 127.775q0 84.9976 -65.5459 139.3l-12.0361 9.96973v363.898q0 28.4809 -30.6238 49.2678q-30.6238 20.7869 -72.5822 20.7869
q-41.9557 0 -72.5784 -20.787q-30.6228 -20.787 -30.6228 -49.2677v-363.904l-12.0361 -9.96875q-65.5469 -54.2956 -65.5469 -139.296q0 -74.7649 53.011 -127.775q53.011 -53.0096 127.778 -53.0096zM521.861 18.2295zM724.144 676.804q-6.7847 0 -11.5833 4.79738
q-4.79857 4.79738 -4.79857 11.5845q0 6.78435 4.79903 11.5836q4.79903 4.79923 11.5828 4.79923h39.8887q6.7836 0 11.5827 -4.79951q4.79912 -4.79951 4.79912 -11.5833q0 -6.78651 -4.79865 -11.5842q-4.79865 -4.79766 -11.5832 -4.79766h-39.8887zM724.144 676.804z
M764.032 659.278q6.78453 0 11.5832 -4.79766q4.79865 -4.79766 4.79865 -11.5842q0 -6.78426 -4.79899 -11.583q-4.79899 -4.79879 -11.5828 -4.79879h-39.8887q-6.78386 0 -11.5828 4.79879q-4.79899 4.79879 -4.79899 11.583q0 6.78651 4.79865 11.5842
q4.79865 4.79766 11.5832 4.79766h39.8887zM764.032 659.278zM764.032 608.994q6.78453 0 11.5832 -4.79766q4.79865 -4.79766 4.79865 -11.5842q0 -6.78369 -4.79907 -11.5828q-4.79907 -4.79907 -11.5828 -4.79907h-39.8887q-6.78369 0 -11.5828 4.79907
q-4.79907 4.79907 -4.79907 11.5828q0 6.78651 4.79865 11.5842q4.79865 4.79766 11.5832 4.79766h39.8887zM764.032 608.994zM764.032 558.711q6.7836 0 11.5827 -4.79951q4.79912 -4.79951 4.79912 -11.5833q0 -6.78595 -4.79873 -11.5839
q-4.79873 -4.79794 -11.5831 -4.79794h-39.8887q-6.78437 0 -11.5831 4.79794q-4.79873 4.79794 -4.79873 11.5839q0 6.78378 4.79912 11.5833q4.79912 4.79951 11.5827 4.79951h39.8887zM764.032 558.711zM764.032 508.422q6.78453 0 11.5832 -4.79766
q4.79865 -4.79766 4.79865 -11.5842q0 -6.78378 -4.79912 -11.5833q-4.79912 -4.79951 -11.5827 -4.79951h-39.8887q-6.7836 0 -11.5827 4.79951q-4.79912 4.79951 -4.79912 11.5833q0 6.78651 4.79865 11.5842q4.79865 4.79766 11.5832 4.79766h39.8887zM764.032 508.422z
M764.032 458.138q6.78453 0 11.5832 -4.79766q4.79865 -4.79766 4.79865 -11.5842q0 -6.78491 -4.79895 -11.5839q-4.79895 -4.79895 -11.5829 -4.79895h-39.8887q-6.78394 0 -11.5829 4.79895q-4.79895 4.79895 -4.79895 11.5839q0 6.78651 4.79865 11.5842
q4.79865 4.79766 11.5832 4.79766h39.8887zM764.032 458.138z" />
    <glyph glyph-name="uniE608" unicode="&#xe608;" 
d="M668.955 421.028l3.45605 3.02344l223.479 192.081q13.6428 -23.3303 24.9707 -49.9766l-168.509 -145.128h-83.3975zM548.336 826.629q32.2098 -1.52051 68.6074 -9.15234l-68.6074 -59.1992v68.3516zM901.193 421.028l-0.000976563 -0.00683594h-83.0098
l118.084 101.557q9.55496 -31.8531 13.5732 -59.6768zM761.91 757.026q23.6662 -15.5947 44.1592 -33.2402l-257.733 -222.107v71.7793zM667.101 803.917q25.691 -8.84799 55.2539 -23.9346l-174.019 -150.031v71.7881zM871.959 652.379l-268.556 -231.352h-55.0674v24.125
l289.111 248.562q18.1986 -19.1282 34.5117 -41.335zM507.976 826.629l0.000976562 -416.5l-315.922 -271.645q-90.6621 115.883 -90.6621 262.405q0 112.493 54.1129 208.608t147.513 154.009q93.3999 57.8947 204.957 63.1221zM535.569 380.727h418.375
q-5.23764 -111.578 -63.1342 -204.992q-57.8966 -93.4134 -154.015 -147.535q-96.1186 -54.1221 -208.623 -54.1221q-89.8972 0 -170.052 35.4192q-80.1546 35.4192 -139.781 98.4373zM535.569 380.727z" />
    <glyph glyph-name="uniE609" unicode="&#xe609;" 
d="M896.621 424.241q0.890636 -10.236 0.896484 -23.9912l-0.87207 -23.9395q-0.597026 -6.91451 -5.67358 -13.4926q-5.07656 -6.5781 -11.6116 -8.90094l-69.4521 -24.707q-15.8474 -5.64176 -21.374 -21.5225l-10.9648 -26.5811q-7.27758 -15.1591 -0.0566406 -30.3467
l31.5273 -66.3242q7.22605 -15.1909 -4.00488 -27.7129l-33.915 -33.9248q-12.5286 -11.2236 -27.7168 -3.99805l-66.3262 31.5283q-15.1823 7.22274 -30.3477 -0.0615234l-26.5752 -10.9736q-15.8803 -5.51408 -21.5215 -21.3613l-24.707 -69.4531
q-2.32634 -6.53662 -8.90305 -11.6212q-6.57671 -5.08462 -13.4866 -5.68736q-10.235 -0.895508 -23.9912 -0.895508l-23.9404 0.87207q-6.91123 0.596263 -13.489 5.67304q-6.57773 5.07677 -8.90362 11.6121l-24.708 69.4521q-5.63409 15.849 -21.5166 21.374
l-26.5791 10.9609q-15.1658 7.28108 -30.3506 0.0605469l-66.3242 -31.5273q-15.1971 -7.22191 -27.709 4.00488l-33.9326 33.9141q-11.2124 12.528 -3.99707 27.7168l31.5303 66.3271q7.21999 15.1931 -0.0595703 30.3467l-10.9727 26.5771
q-5.51331 15.8798 -21.3613 21.5225l-69.4531 24.707q-6.5361 2.32323 -11.6208 8.90074q-5.08473 6.5775 -5.68678 13.4879q-0.895508 10.236 -0.895508 23.9912l0.895508 23.9883q0.601961 6.90937 5.68575 13.4875q5.08379 6.5781 11.618 8.90608l69.4092 24.6982
q15.8424 5.64061 21.373 21.5225l10.9609 26.5811q7.28184 15.1621 0.0605469 30.3467l-31.5273 66.3281q-7.22477 15.1811 4.00098 27.709l33.9248 33.9199q12.5204 11.2263 27.71 4.00879l66.3711 -31.5332q15.1926 -7.21538 30.3467 0.0634766l26.5391 10.958
q15.8717 5.52662 21.5205 21.377l24.7002 69.4043q2.32601 6.5364 8.90385 11.6216q6.57784 5.08517 13.4887 5.69093q10.236 0.890625 23.9873 0.890625l23.9912 -0.890625q6.91133 -0.605795 13.489 -5.69116q6.57769 -5.08536 8.90062 -11.6213l24.7031 -69.4043
q5.63815 -15.8404 21.5215 -21.374l26.582 -10.9609q15.1616 -7.28248 30.3477 -0.0595703l66.3262 31.5264q15.1848 7.22569 27.708 -4.00098l33.9219 -33.9199q11.2222 -12.5237 4.00488 -27.7129l-31.5312 -66.3232q-7.21683 -15.1957 0.0605469 -30.3467
l10.9727 -26.5791q5.51226 -15.8801 21.3623 -21.5254l69.4082 -24.7021q6.53698 -2.32794 11.6214 -8.90404q5.08446 -6.5761 5.68716 -13.4856zM527.543 232.08q69.6547 0 118.912 49.2574q49.2576 49.2574 49.2576 118.912q0 69.6522 -49.2577 118.909
q-49.2577 49.2569 -118.912 49.2569q-69.6522 0 -118.911 -49.2573q-49.2588 -49.2573 -49.2588 -118.909q0 -69.6535 49.2587 -118.911q49.2587 -49.2577 118.911 -49.2577zM451.866 400.249q0 31.3436 22.165 53.5117q22.1707 22.166 53.5117 22.166
q31.3426 0 53.5117 -22.166q22.165 -22.1697 22.165 -53.5117q0 -31.3405 -22.165 -53.5117q-22.165 -22.165 -53.5117 -22.165q-31.3451 0 -53.5117 22.165q-22.165 22.1712 -22.165 53.5117zM451.866 400.249z" />
    <glyph glyph-name="uniE60A" unicode="&#xe60a;" 
d="M89.2148 64.9043l290.759 190.201l1.0752 70.9209q-23.3655 1.91146 -41.3376 24.4788q-17.9722 22.5674 -24.2616 44.179l-6.28944 21.6117v248.234q8.11207 44.8328 30.6567 79.5878q22.5446 34.755 48.9256 52.3333q26.381 17.5783 51.6031 28.7519
q25.2221 11.1736 41.9724 13.9051l16.7503 2.73152h57.9365q50.17 -8.12355 88.1856 -29.3747q38.0155 -21.2512 56.435 -45.778q18.4195 -24.5268 29.6718 -47.8932q11.2523 -23.3663 13.4321 -38.815l2.17981 -15.4487v-248.233q-6.00797 -26.1786 -15.8432 -44.7742
q-9.83519 -18.5955 -19.5804 -26.4357q-9.74523 -7.84022 -18.6322 -11.9406q-8.88695 -4.10041 -14.4307 -3.99691l-5.54379 0.1035v-75.2207l292.904 -191.281v-103.163l-876.568 1.07617v104.24zM89.2148 64.9043z" />
    <glyph glyph-name="uniE60B" unicode="&#xe60b;" 
d="M93.7178 561.97v70.082q4.38978 -3.0669 12.3002 -8.15674q7.91043 -5.08985 32.3244 -18.1007q24.414 -13.0109 48.7509 -22.9548q24.3369 -9.94396 58.2004 -18.1007q33.8635 -8.15674 64.0521 -8.15674q27.1693 0 57.1523 10.5492q29.983 10.5492 53.3675 25.6047
t42.8878 30.1112q19.5032 15.0556 30.0796 25.6047l10.5763 10.5492q4.39067 3.28604 12.3651 8.73957q7.97442 5.45353 32.9711 19.3941q24.9967 13.9405 50.3466 24.595q25.3498 10.6545 61.4339 19.3941q36.084 8.73957 69.2906 8.73957q47.9167 0 104.519 -18.8672
t89.2458 -37.7344l32.6437 -18.8672v-102.425q-4.82755 3.0669 -13.4332 8.15674q-8.60567 5.08985 -34.587 18.1007q-25.9813 13.0109 -51.2319 22.9548q-25.2506 9.94396 -59.1678 18.1007q-33.9172 8.15674 -62.5948 8.15674q-34.7164 0 -70.8076 -7.77338
q-36.0911 -7.77338 -62.8024 -18.8674q-26.7113 -11.094 -48.463 -22.1881q-21.7518 -11.094 -33.0454 -18.8674l-11.2937 -7.77338q-4.16986 -3.06686 -11.6528 -8.15664q-7.48292 -5.08978 -30.3846 -18.1005q-22.9017 -13.0107 -45.5148 -22.9545
q-22.6131 -9.94383 -53.6721 -18.1005q-31.059 -8.15664 -58.2278 -8.15664q-47.9184 0 -101.825 18.8672q-53.907 18.8672 -83.8548 37.7344zM93.7178 561.97zM93.7178 362.519v70.0762q4.38978 -3.0669 12.3002 -8.15674q7.91043 -5.08985 32.3244 -18.1007
q24.414 -13.0109 48.7509 -22.9548q24.3369 -9.94396 58.2004 -18.1007q33.8635 -8.15674 64.0521 -8.15674q27.1693 0 57.7073 9.99442q30.538 9.99442 54.7147 24.2583q24.1767 14.2639 44.4721 28.5278q20.2954 14.2639 31.4267 24.2583l11.1314 9.99442
q4.17216 3.28639 11.8152 8.77174q7.64304 5.48535 32.0024 19.7168q24.3594 14.2314 49.5061 25.3919q25.1467 11.1605 61.7594 21.0098q36.6127 9.84928 71.3291 11.3578q47.9162 0 104.518 -18.8672t89.245 -37.7344l32.6434 -18.8672v-102.419
q-5.04665 3.06686 -14.0159 8.15664q-8.96929 5.08978 -35.8801 18.1005t-52.8718 22.9545q-25.961 9.94383 -60.4609 18.1005q-34.4999 8.15664 -63.1775 8.15664q-34.7164 0 -70.8076 -7.77328q-36.0911 -7.77328 -62.8024 -18.8672q-26.7113 -11.0939 -48.463 -22.1878
q-21.7518 -11.0939 -33.0454 -18.8672l-11.2937 -7.77328q-4.16986 -3.0669 -11.6528 -8.15674q-7.48292 -5.08985 -30.3846 -18.1007q-22.9017 -13.0109 -45.5148 -22.9548q-22.6131 -9.94396 -53.6721 -18.1007q-31.059 -8.15674 -58.2278 -8.15674
q-47.9184 0 -101.825 18.8674q-53.907 18.8674 -83.8548 37.7349zM93.7178 362.519zM93.7178 136.107v70.0801q4.38978 -3.06686 12.3002 -8.15664q7.91043 -5.08978 32.3244 -18.1005q24.414 -13.0107 48.7509 -22.9545q24.3369 -9.94383 58.2004 -18.1005
q33.8635 -8.15664 64.0521 -8.15664q27.1693 0 57.7073 10.5492q30.538 10.5492 54.7147 25.6047q24.1767 15.0556 44.4721 30.1112q20.2954 15.0556 31.4267 25.6047l11.1314 10.5492q4.39079 3.28608 12.3654 8.73968q7.97462 5.4536 32.972 19.3943
q24.9973 13.9407 50.3477 24.5953q25.3504 10.6546 61.4352 19.3943q36.0848 8.73968 69.2918 8.73968q47.9162 0 104.518 -18.8674q56.6016 -18.8674 89.245 -37.7349l32.6434 -18.8674v-102.424q-5.04665 3.06682 -14.0159 8.15653q-8.96929 5.08972 -35.8801 18.1002
q-26.9108 13.0105 -52.8718 22.9542q-25.961 9.94371 -60.4609 18.1002q-34.4999 8.15653 -63.1775 8.15653q-34.7164 0 -70.8076 -7.77318q-36.0911 -7.77318 -62.8024 -18.8669q-26.7113 -11.0938 -48.463 -22.1875q-21.7518 -11.0938 -33.0454 -18.8669
l-11.2937 -7.77318q-4.16986 -3.0669 -11.6528 -8.15674q-7.48292 -5.08985 -30.3846 -18.1007q-22.9017 -13.0109 -45.5148 -22.9548q-22.6131 -9.94396 -53.6721 -18.1007q-31.059 -8.15674 -58.2278 -8.15674q-47.9184 0 -101.825 18.8674
q-53.907 18.8674 -83.8548 37.7349zM93.7178 136.107z" />
    <glyph glyph-name="uniE610" unicode="&#xe610;" 
d="M564.07 371.054l391.041 199.819v-398.269l-391.041 -199.816v398.266zM100.094 172.604v400.834l391.042 -199.775v-400.875zM527.604 827.805l392.281 -200.415l-389.762 -199.135l-392.28 200.415zM527.604 827.805z" />
    <glyph glyph-name="uniE611" unicode="&#xe611;" 
d="M950.443 101.36q0.633953 -0.915274 11.3564 -23.5205v-7.24707q-0.196795 -0.468293 -0.593951 -1.40403q-0.781501 -1.8413 -1.15898 -2.76589q-5.09968 -12.4717 -18.3242 -12.4717q-91.4441 0 -259.092 -0.00108507q-167.648 -0.00108507 -304.813 -0.00108507
q-137.166 0 -259.089 0.00217014q-13.6414 0 -20.871 12.019q-7.22964 12.019 -0.38385 23.6236q2.4619 4.17393 13.8125 15.876q1.64712 1.69426 5.66113 1.5957q103.767 -2.59768 235.928 -6.0918q84.2406 -2.22106 165.557 -4.47168q13.5188 -0.374753 41.6609 -1.23082
q28.1421 -0.856065 42.6623 -1.25258q7.03327 -0.186139 11.8486 0.649414q10.4599 1.83125 4.64844 10.3584q-3.94964 5.80017 -10.8213 12.4287q-7.73426 7.46156 -16.3809 14.2695q-7.24467 5.71229 -5.33105 13.6357q4.45881 18.54 9.08301 32.2178
q2.32831 6.89834 7.23438 19.4202q4.90607 12.5219 6.13867 15.8366q6.80853 18.3307 5.97754 32.8066q-0.54486 9.44991 9.07324 10.2119q13.4497 1.06748 18.3799 15.8682q3.39449 10.1937 5.39355 24.1387q1.4183 9.87415 3.78514 28.9001
q2.36684 19.026 3.62697 28.0061q1.08175 7.72612 4.20508 13.7471q2.53935 4.9057 7.91016 8.22852q5.37326 3.31832 2.1543 7.92578q-0.587397 0.841518 -6.54102 7.99219q-14.3885 17.2673 -15.1475 18.3135q-9.94419 13.7242 -6.35938 31.502
q3.53551 17.5612 21.1279 20.4238q16.5028 2.6854 40.5205 -5.63477q1.76558 -0.610996 3.98438 -3.80664q168.814 -242.694 243.178 -350.098zM950.443 101.36zM133.811 132.556q-10.7458 1.42354 -17.591 10.1035q-6.84526 8.67991 -5.43632 19.337
q7.59742 57.326 29.4229 117.044q20.4384 55.9199 64.3525 132.303q17.0782 29.7029 19.3975 45.3242q2.21972 14.8974 2.37695 26.1387q0.0549843 4.19452 -5.15625 7.7334q-7.05909 4.788 -17.5596 9.77539q-6.32928 3.00134 -19.8513 9.13436
q-13.522 6.13302 -20.4974 9.47208q-5.68818 2.72347 -11.0742 7.49219q-11.923 10.582 -3.4082 23.667q5.04739 7.74235 11.5703 13.0762q44.0008 36.0046 97.1348 49.957q63.0122 16.5479 113.627 3.14648q-13.6126 18.825 -16.582 41.8506
q-3.88721 30.1761 14.986 56.3743q18.8732 26.1982 48.1283 31.0925q30.9268 5.17376 56.4875 -12.4182q25.5607 -17.5919 32.0867 -48.5408q6.84544 -32.4625 -9.55852 -60.1647q-16.404 -27.7022 -47.2325 -35.5657q-1.08943 -0.277951 -22.292 -3.19727
q-0.026997 -0.520855 0.106445 -0.654297q24.0436 -23.5592 28.2988 -66.5947q2.86235 -28.9351 3.60156 -33.4268q5.53969 -33.713 31.2109 -63.6387q13.636 -15.8982 20.8408 -27.4902q21.5394 -34.6383 63.96 -36.6113q10.1493 -0.465906 22.292 -4.04395
q17.3355 -5.1005 13.0469 -22.1309q-9.41661 -37.3806 -39.2764 -61.0391q-13.5937 -10.7659 -22.6094 3.2832q-0.0127487 0.0198647 -13.5508 28.2129q-2.38173 4.96578 -4.08789 6.10352q-38.9433 25.9574 -135.344 89.7822q-0.0712904 0.0477435 -2.25684 1.21484
q1.72165 -4.25802 1.80664 -4.4375q19.2181 -40.1365 21.4023 -44.7598q1.65996 -3.50884 1.72754 -6.34961q2.29309 -103.437 2.93555 -146.422q0.127937 -8.27352 -1.86719 -31.4814q-1.68777 -19.7764 -20.4951 -27.4385q-9.48109 -3.86871 -15.8613 -4.31641
q-32.9251 -2.30048 -45.8584 -1.58008q-21.5784 1.20507 -21.5361 25.1504q0.0150809 9.15568 0.0638606 66.7285q0.0487797 57.5728 0.161725 88.0088q0.0333669 8.86289 -4.51172 14.3252q-10.0341 12.0409 -10.6348 12.6133q-10.317 9.84218 -19.6182 -0.0898438
q-14.8268 -15.8547 -22.3584 -27.0762q-41.4544 -61.7355 -71.5098 -138.97q-5.74723 -14.7656 -12.3154 -23.6582q-14.6814 -19.8523 -41.0947 -16.3486zM393.272 454.827q-0.457101 -1.95326 1.0498 -3.0166q7.48215 -5.27832 33.6709 -23.4209
q-13.4913 21.1728 -23.2139 75.0547q-8.65239 -36.2897 -11.5068 -48.6172zM225.793 546.396q1.27749 -0.886734 16.1248 -11.1914q14.8473 -10.3047 22.3616 -15.5224q8.59993 13.4419 25.6396 40.0674q-8.75834 -1.82373 -30.3932 -6.32918
q-21.6349 -4.50545 -33.7327 -7.02434zM225.793 546.396z" />
    <glyph glyph-name="uniE612" unicode="&#xe612;" 
d="M646.122 10.9043h-495.754q-11.4561 0 -11.4561 8.24512v21.9912q0 8.25098 11.4561 8.25098h468.527zM646.122 10.9043zM260.799 86.1416q0 -8.94531 -12.8311 -8.94531h-96.2178q-12.8389 0 -12.8389 8.94531v154.959q0 8.94336 12.8389 8.94336h96.2178
q12.834 0 12.834 -8.94336zM260.799 86.1416zM416.331 90.2295q0 -5.6941 -3.75476 -9.72351q-3.75476 -4.02942 -9.06165 -4.02942h-96.2393q-5.31341 0 -9.06735 4.02895q-3.75394 4.02895 -3.75394 9.72398v238.373q0 5.69555 3.75504 9.71887
q3.75504 4.02332 9.06625 4.02332h96.2393q5.30848 0 9.06244 -4.02343q3.75396 -4.02343 3.75396 -9.71876v-238.373zM416.331 90.2295zM580.981 88.9375q0 -12.4619 -12.8174 -12.4619h-96.2393q-12.8213 0 -12.8213 12.4619v322.204q0 12.46 12.8213 12.46h96.2393
q12.8174 0 12.8174 -12.46v-322.204zM580.981 88.9375zM622.579 191.943v412.489q0 10.6059 3.03145 13.1545q3.03145 2.54861 9.8084 2.54861h96.2207q4.60409 0 6.72133 -0.522426q2.11725 -0.522426 4.11202 -4.13939q1.99477 -3.61697 1.99477 -11.0413
q1.01363 -310.425 0 -322.653q-29.062 -0.380352 -52.3072 -9.77337q-23.2452 -9.39302 -35.6618 -22.5269q-12.4166 -13.1339 -20.6815 -26.2134t-10.7515 -22.2009zM622.579 191.943zM689.223 733.372l-69.8418 -0.000976562q-11.2374 -63.8402 -34.6391 -116.763
q-23.4018 -52.9228 -53.4826 -88.4353q-30.0809 -35.5125 -65.8411 -63.1773q-35.7602 -27.6648 -72.5942 -42.9784q-36.834 -15.3136 -72.8036 -25.7164q-35.9696 -10.4028 -67.4077 -13.5137q-31.4381 -3.11084 -55.4681 -4.24786q-24.03 -1.13702 -37.9232 -0.0412387
l-13.8932 1.09578q71.4307 7.3842 132.861 27.3306q61.4299 19.9464 103.99 45.3995q42.5596 25.4531 77.6747 58.7634q35.1151 33.3103 56.1716 63.2708t37.0743 63.35q16.0179 33.3895 22.7889 54.5727q6.77098 21.1831 11.0596 41.0903h-70.3271l92.167 99.6855z
M689.223 733.372zM766.413 268.854q62.3939 0 106.515 -44.1225q44.1209 -44.1225 44.1209 -106.52q0 -62.3982 -44.1208 -106.52q-44.1208 -44.1222 -106.515 -44.1222q-62.398 0 -106.52 44.122q-44.1218 44.122 -44.1218 106.521q0 62.398 44.1219 106.52
q44.1219 44.1223 106.52 44.1223zM817.167 122.393l-27.0264 -0.000976563l38.8359 69.8965h-36.3379l-16.127 -39.1309q-2.3004 -5.72015 -5.90674 -16.0498q-3.60634 -10.3297 -3.85791 -11.0215h-0.453125q-7.54012 22.0066 -9.53809 26.8252l-15.8975 39.3721h-37.0215
l37.0215 -69.8906h-27.2568v-17.4736h35.4297v-15.748h-35.4297v-17.4697h35.4297v-39.3779h32.4824v39.3779h35.6533v17.4697h-35.6533v15.748h35.6533v17.4736zM817.167 122.393z" />
    <glyph glyph-name="uniE613" unicode="&#xe613;" 
d="M94.3662 833.652h866.278v-866.071h-866.278v866.071zM906.498 21.7139v757.81h-757.991v-757.81h757.991zM906.498 21.7139zM326.136 651.167v-194.403q0 -243.164 -81.6914 -349.553q-19.021 22.1914 -37.9951 41.1611q69.022 84.8511 69.0244 303.958v243.163
q307.115 1.26562 534.459 26.5967l17.7295 -49.3936q-238.107 -17.0977 -501.526 -21.5293zM326.136 651.167zM600.328 265.522q115.955 -50.6928 237.464 -110.819l-27.2305 -46.8574q-121.578 67.1235 -226.066 115.248q-49.3901 -84.2168 -245.064 -117.149
q-10.789 20.3013 -27.2305 46.2275q196.934 30.3984 230.501 97.5186q17.7275 29.1313 16.4648 134.884h49.3945q1.25862 -82.3466 -8.23242 -119.052zM600.328 265.522zM823.863 535.285l-215.303 0.000976562v-73.459h170.344v-222.901h-49.3936v178.575h-290.659
v-178.575h-49.3945v222.9h168.442v73.459h-207.703v44.3262h207.703v69.0244h50.6611v-69.0244h215.303v-44.3262zM823.863 535.285z" />
    <glyph glyph-name="uniE614" unicode="&#xe614;" 
d="M313.333 444.242l-0.000976562 21.8623q0 9.07076 6.26094 15.4783q6.26094 6.40749 15.1346 6.40749h378.64q8.89747 0 15.165 -6.4062q6.26757 -6.4062 6.26757 -15.4795v-21.8623q0 -9.0614 -6.26889 -15.4721q-6.26889 -6.41071 -15.1637 -6.41071h-378.639
q-8.87045 0 -15.133 6.41208q-6.26253 6.41208 -6.26253 15.4707zM313.333 444.242zM334.728 582.817q-8.8741 0 -15.1344 6.39858t-6.26107 15.4637v21.8633q0 9.06869 6.26136 15.4782q6.26136 6.4095 15.1342 6.4095h378.64q8.89663 0 15.1646 -6.40821
q6.26799 -6.40821 6.26799 -15.4795v-21.8633q0 -9.06846 -6.26661 -15.4654q-6.26661 -6.39692 -15.166 -6.39692h-378.64zM334.728 582.817zM313.333 283.802l-0.000976562 21.8867q0 9.06823 6.26113 15.4755t15.1344 6.40729h310.028q8.88014 0 15.1769 -6.41118
q6.29675 -6.41118 6.29675 -15.4716v-21.8867q0 -9.04543 -6.298 -15.4563q-6.298 -6.41088 -15.1756 -6.41088h-310.027q-8.87075 0 -15.1331 6.40699q-6.26238 6.40699 -6.26238 15.4602zM313.333 283.802zM870.535 830.756q11.8416 0 20.2216 -8.54737
q8.38 -8.54737 8.38 -20.6245v-658.923l-167.313 -172.021h-80.4883v229.37q0 12.7237 2.35632 15.9126q2.35632 3.18892 13.713 3.18892h160.26v514.23q0 10.1396 -6.99872 17.3066q-6.99872 7.16704 -16.9026 7.16704h-552.262q-9.92431 0 -16.9133 -7.16398
q-6.98902 -7.16398 -6.98902 -17.3097v-665.361q0 -10.1351 6.99063 -17.3048q6.99063 -7.16977 16.9117 -7.16977h294.627v-72.8652h-361.395q-11.8466 0 -20.2265 8.53878q-8.37993 8.53878 -8.37993 20.6145v801.79q0 12.0775 8.3808 20.6247
q8.3808 8.54718 20.2256 8.54718h685.802zM706.353 56.6543l97.1396 89.6152h-69.3184q-9.6807 0 -18.751 -10.9253q-9.07029 -10.9253 -9.07029 -21.3697v-57.3203zM706.353 56.6543z" />
    <glyph glyph-name="uniE615" unicode="&#xe615;" 
d="M213.356 543.788h48.4395v-36.6523h-48.4395v36.6523zM213.356 543.788zM213.356 290.226h49.1416v-37.5947h-49.1416v37.5947zM213.356 290.226zM212.652 375.369h49.1436v-37.5762h-49.1436v37.5762zM212.652 375.369zM219.37 710.881h616.64v-29.083h-616.64v29.083z
M219.37 710.881zM410.947 82.9775v0q431.128 376.554 432.957 378.151l-0.62207 -378.151h-432.335zM789.82 91.1016h-0.000976562v16.7412q0 9.71387 -9.2373 9.71387q-9.23242 0 -9.23242 -9.71387v-16.7412h18.4707zM702.608 91.1016h-0.000976563v16.7412
q0 9.71387 -9.24316 9.71387q-9.23145 0 -9.23145 -9.71387v-16.7412h18.4756zM615.383 91.1016h-0.000976562v16.7412q0 9.71387 -9.2373 9.71387q-9.2334 0 -9.2334 -9.71387v-16.7412h18.4717zM528.168 91.1016h-0.000976562v16.7412q0 9.71387 -9.24219 9.71387
q-9.23145 0 -9.23145 -9.71387v-16.7412h18.4746zM641.894 211.761l-87.1064 -76.0771h243.056l0.353516 212.576l-41.3496 -36.0977zM641.894 211.761zM104.729 790.48v0q0 12.7918 8.95551 24.3502q8.95551 11.5583 20.9468 11.559h790.39q6.52138 0 16.0761 -10.2144
q9.55474 -10.2144 9.55474 -18.2222v-794.56q0 -11.4328 -10.1476 -19.9332q-10.1476 -8.50042 -22.6014 -8.50042h-779.004q-13.1605 0 -23.6652 9.23232q-10.5047 9.23232 -10.5047 22.1827v784.105zM879.842 35.8975h-0.00488281q14.2363 10.0165 14.2363 26.9453
v672.468q0 8.13806 -8.33677 18.2868q-8.33677 10.1487 -15.8742 10.1487h-684.36q-6.21527 0 -14.5041 -10.271q-8.28885 -10.271 -8.28885 -18.1646v-681.449q0 -4.33186 8.08578 -11.893q8.08578 -7.56112 11.8517 -7.56112h674.401zM879.842 35.8975zM628.649 459.802
h-0.000976562v-137.008h-130.368v137.008h130.369zM603.209 349.528v83.5371h-79.4932v-83.5371h79.4932zM603.209 349.528zM380.69 465.554v0q29.2258 0 49.943 -21.7755q20.7172 -21.7755 20.7172 -52.4911q0 -30.7002 -20.7182 -52.4737t-49.9419 -21.7734
q-29.2187 0 -49.9394 21.7742q-20.7207 21.7742 -20.7207 52.4729q0 30.714 20.7197 52.4903q20.7197 21.7763 49.9404 21.7763zM380.69 343.773q18.701 0 31.961 13.9329q13.26 13.9329 13.2636 33.5808q0 19.6627 -13.2605 33.5994q-13.2605 13.9367 -31.9641 13.9367
q-18.7029 0 -31.9637 -13.9381q-13.2609 -13.9381 -13.2609 -33.598q0 -19.6471 13.2614 -33.5804q13.2614 -13.9333 31.9632 -13.9333zM380.69 343.773zM563.462 498.932v0q-29.2214 0 -49.9404 21.7772q-20.719 21.7772 -20.7198 52.4884q0 30.7027 20.7195 52.4753
q20.7195 21.7727 49.9407 21.7727q29.2203 0 49.9432 -21.7737q20.7228 -21.7737 20.7228 -52.4743q0 -30.7098 -20.7231 -52.4877q-20.7231 -21.7779 -49.9429 -21.7779zM563.462 620.714q-18.7011 0 -31.9604 -13.9344q-13.2593 -13.9344 -13.2593 -33.5822
q0 -19.6593 13.2585 -33.5948q13.2585 -13.9355 31.9612 -13.9355q18.7039 0 31.9647 13.9357q13.2609 13.9357 13.2609 33.5946q0 19.6474 -13.2617 33.582q-13.2617 13.9346 -31.9639 13.9346zM563.462 620.714zM380.69 647.445v0q29.2246 0 49.9424 -21.7722
q20.7178 -21.7722 20.7178 -52.4759q0 -30.7122 -20.7176 -52.4889q-20.7176 -21.7767 -49.9425 -21.7767q-29.22 0 -49.9401 21.7773q-20.7201 21.7773 -20.7201 52.4884q0 30.7021 20.7203 52.4751q20.7203 21.773 49.9398 21.773zM380.69 525.668
q18.7025 0 31.9617 13.935q13.2592 13.935 13.2629 33.5953q0 19.6473 -13.2615 33.582q-13.2615 13.9346 -31.9631 13.9346q-18.7014 0 -31.963 -13.9349q-13.2616 -13.9349 -13.2616 -33.5817q0 -19.6588 13.2607 -33.5945t31.9639 -13.9357zM380.69 525.668z
M213.356 627.991h48.4395v-36.6543h-48.4395v36.6543zM213.356 627.991zM213.356 459.572h48.4395v-36.6406h-48.4395v36.6406zM213.356 459.572zM213.356 205.066h49.1416v-37.5791h-49.1416v37.5791zM213.356 205.066zM213.356 119.924h49.1416v-37.5898h-49.1416v37.5898
zM213.356 119.924z" />
    <glyph glyph-name="uniE616" unicode="&#xe616;" 
d="M386.538 262.339l53.9844 187.765l134.951 -134.124zM891.157 629.737l-296.9 -295.059l-134.952 134.115l296.901 295.07zM851.827 133.051v337.665l84.4209 84.417v-450.221q0 -58.2806 -41.2089 -99.488t-99.4844 -41.2073h-562.775q-58.2834 0 -99.4889 41.2047
q-41.2055 41.2047 -41.2055 99.4906v562.775q0 58.283 41.2058 99.4887q41.2058 41.2057 99.4885 41.2057h450.221l-84.416 -84.417h-337.666q-34.9733 0 -59.6952 -24.7216q-24.7218 -24.7216 -24.7218 -59.6954v-506.497q0 -34.9592 24.723 -59.6881
q24.723 -24.7289 59.694 -24.7289h506.498q34.9603 0 59.6857 24.7302q24.7254 24.7302 24.7254 59.6868zM953.879 742.407q10.481 -10.4201 9.98572 -25.64q-0.495298 -15.2199 -11.6771 -26.3278l-40.4902 -40.2412l-134.956 134.127l40.4961 40.2295
q11.182 11.1088 26.4966 11.6011t25.7964 -9.92334zM953.879 742.407z" />
    <glyph glyph-name="uniE617" unicode="&#xe617;" 
d="M922.582 564.122q11.6811 0 19.9441 -8.33824q8.26295 -8.33824 8.26295 -20.1217v-469.354q0 -11.7772 -8.26311 -20.1122q-8.26311 -8.33503 -19.9439 -8.33503h-592.433q-11.6836 0 -19.9483 8.33497q-8.26463 8.33497 -8.26463 20.1123v71.1406h-70.5254
q-11.6863 0 -19.9486 8.33069q-8.26234 8.33069 -8.26234 20.1215v71.0869h-70.5264q-11.6827 0 -19.9473 8.33634q-8.26461 8.33634 -8.26461 20.1109v469.344q0 11.7752 8.26308 20.0995t19.9488 8.32433h592.428q11.6864 0 19.9497 -8.32429
q8.26324 -8.32429 8.26324 -20.0995v-71.1221h70.5244q11.6876 0 19.9503 -8.32821q8.26262 -8.32821 8.26262 -20.1191v-71.0869h70.5303zM203.2 635.209q0 11.7907 8.26243 20.1191t19.9495 8.32914h493.692v56.8994q0 5.89926 -4.13128 10.061
q-4.13128 4.1617 -9.97419 4.1617h-564.22q-5.84824 0 -9.97734 -4.1607q-4.1291 -4.1607 -4.1291 -10.062v-440.889q0 -5.90566 4.12911 -10.0695q4.12911 -4.16387 9.97734 -4.16387h56.4209v369.774zM301.938 535.662q0 11.7836 8.264 20.1219
q8.264 8.33829 19.9479 8.33902h493.695v56.8848q0 5.89311 -4.13053 10.0471q-4.13053 4.15403 -9.97592 4.15403h-564.221q-5.84755 0 -9.97651 -4.15364q-4.12896 -4.15364 -4.12896 -10.0475v-440.909q0 -5.88844 4.12953 -10.0429q4.12953 -4.15441 9.97594 -4.15441
h56.4199v369.761zM922.582 80.5625v440.889q0 5.89985 -4.12987 10.0554q-4.12987 4.15554 -9.97657 4.15554h-564.22q-5.84727 0 -9.97686 -4.15546q-4.12959 -4.15546 -4.12959 -10.0555v-440.889q0 -5.92303 4.12902 -10.088t9.97743 -4.16495h564.216
q5.85104 0 9.98069 4.1648q4.12966 4.1648 4.12966 10.0881zM922.582 80.5625z" />
    <glyph glyph-name="uniE618" unicode="&#xe618;" 
d="M700.222 631.546l7.00781 -24.4033q-142.095 -10.5078 -345.052 -13.9199v-127.219q0 -93.9248 -10.4805 -142.898q-8.73438 -47.0781 -38.3291 -99.3369q-2.71387 1.82227 -15.6836 10.4404q-3.50391 1.78809 -5.19336 3.48242q27.8428 47.1035 36.5596 92.375
q8.7207 47.0459 8.7207 137.656v148.146q208.991 0 362.45 15.6777zM705.464 513.052h-148.143v-59.2529h118.546v-144.663h-24.4043v123.741h-210.87v-123.741h-24.4053v144.663h116.776v59.2529h-142.945v20.9219h142.945v50.5264h24.3574v-50.5264h148.143v-20.9219z
M559.086 399.747q0 -41.8379 -10.4414 -74.9297q87.1113 -38.3262 165.542 -76.6455l-13.9658 -22.6904q-58.5352 34.5098 -160.297 80.1748q-27.8848 -53.9805 -160.3 -83.6484q-3.81445 7.47754 -10.4854 19.1572q1.20117 -1.19336 -0.169922 1.06152
q-0.552734 0.908203 -1.5459 2.42188q101.175 19.2578 134.128 50.5723q34.8926 29.6016 34.8906 104.526h22.6445zM881.639 682.949q10.5605 -176.338 -3.95996 -264.763q-31.0771 -189.439 -137.614 -296.109q-54.0244 -53.8203 -142.587 -90.8096
q-11.5498 -4.83691 -34.791 -18.1152q-14.9912 -8.57227 -22.8535 -12.6172q-7.01953 -3.67383 -15.8379 -3.67383q-7.15625 0 -13.1973 2.58496q-8.3877 3.66211 -24.7764 11.4746q-27.4756 13.1172 -41.29 17.9648q-111.942 39.1826 -185.897 118.729
q-71.4072 76.8047 -107.758 191.812q-32.5518 103.047 -21.8428 230.004q3.35449 39.8887 12.9111 119.746q3.34082 27.8115 5.16504 43.6475q0.639648 5.74902 3.28027 13.0928l5.2207 16.9131l17.3418 -2.64062q12.2861 -1.87305 37.0078 -6.10449
q49.9824 -8.55273 74.4619 -10.5566q11.4922 -0.96582 22.7939 -0.96582q90.2432 0 180.909 63.0312q18.5264 12.9033 32.7178 12.9033q15.0977 0 34.3408 -14.7441q87.5264 -67.0928 189.129 -67.0869q47.249 0 97.9131 14.3994l0.353516 0.0947266
q1.22363 0.328125 3.9502 0.893555q2.37793 0.488281 4.01367 0.857422l21.6299 4.89453l3 -21.9746q0.556641 -4.05371 1.87012 -12.6592q3.21582 -21.0869 3.90527 -32.0537zM837.543 424.773q13.7852 83.9473 3.49023 255.738l-0.479492 8.11621
q-0.495117 7.81445 -2.14941 19.2793q-48.2695 -11.9238 -93.8896 -11.9238q-115.402 0 -213.864 75.4717q-6.95898 5.33301 -9.65527 6.28613q-2.73633 -0.875977 -9.43848 -5.5459q-101.129 -70.3145 -204.133 -70.3145q-13.0742 0 -26.1641 1.10645
q-26.2676 2.14844 -77.959 11.0068q-10.8096 1.85254 -16.8945 2.86719q-1.33691 -11.3633 -3.87305 -32.5283q-9.46094 -78.9775 -12.7705 -118.316q-10.0303 -118.976 20.1006 -214.334q67.6895 -214.18 268.317 -284.409q15.7969 -5.54102 45.3662 -19.6426
q13.4619 -6.43066 20.3809 -9.51953q6.03418 3.18457 18.5723 10.3447q25.3047 14.4775 39.2852 20.332q81.2324 33.9346 129.538 82.0605q97.2607 97.3877 126.22 273.925z" />
    <glyph glyph-name="uniE619" unicode="&#xe619;" 
d="M672.435 512.484h-148.711v-59.4805h119v-145.219h-24.498v124.216h-211.679v-124.217h-24.499v145.22h117.224v59.4805h-143.492v21.001h143.492v50.7227h24.4521v-50.7227h148.711v-21.001zM525.495 398.744q0 -41.9941 -10.4814 -75.2148
q87.505 -38.5022 166.18 -76.9395l-14.0215 -22.7783q-58.7778 34.6504 -160.911 80.4834q-27.9917 -54.1904 -160.917 -83.9717q-3.82813 7.50294 -10.5254 19.2295q1.20785 -1.19966 -0.17518 1.07285q-0.554248 0.910705 -1.54748 2.42422
q101.569 19.3338 134.644 50.7676q35.0273 29.71 35.0254 104.927h22.7305zM667.172 631.433l7.0332 -24.4971q-142.582 -10.5454 -346.375 -13.9727v-127.709q0 -94.2908 -10.5205 -143.446q-8.7659 -47.2547 -38.4756 -99.7168q-2.30972 1.55015 -15.7432 10.4795
q-3.52134 1.79586 -5.21387 3.49414q27.951 47.2859 36.7002 92.7305q8.75391 47.2236 8.75391 138.184v148.717q209.798 0 363.841 15.7373zM849.287 683.033q10.6031 -176.995 -3.97559 -265.777q-31.1998 -190.172 -138.143 -297.249
q-54.2198 -54.0195 -143.135 -91.1592q-11.596 -4.85505 -34.9238 -18.1836q-14.9876 -8.57536 -22.9424 -12.665q-7.04703 -3.68848 -15.8955 -3.68848q-7.17896 0 -13.249 2.59375q-8.50213 3.71531 -24.8711 11.5195q-27.6024 13.1758 -41.4502 18.0332
q-112.374 39.337 -186.611 119.188q-71.6835 77.1048 -108.172 192.547q-32.6762 103.448 -21.9258 230.887q3.36821 40.0581 12.9609 120.206q3.42924 28.5649 5.18555 43.8154q0.642695 5.77839 3.29199 13.1436l0.132812 0.369141l5.10742 16.6084l17.4102 -2.65137
q12.2939 -1.87447 37.1504 -6.12695q50.1645 -8.58639 74.7471 -10.5977q11.5542 -0.96875 22.8818 -0.96875q90.5907 0 181.604 63.2725q18.5956 12.9531 32.8438 12.9531q15.1497 0 34.4736 -14.8008q87.8587 -67.3511 189.852 -67.3438q47.4354 0 98.291 14.4541
l0.354492 0.0947266q1.22717 0.329016 3.96582 0.896484q2.53702 0.524816 4.0293 0.860352l21.7139 4.91309l3.01074 -22.0586q0.591774 -4.29282 1.87695 -12.707q3.22908 -21.1651 3.91992 -32.1777zM805.023 423.865q13.8375 84.2806 3.5 256.724l-0.482422 8.14551
q-0.496762 7.84738 -2.15527 19.3535q-48.4572 -11.9697 -94.251 -11.9697q-115.844 0 -214.685 75.7617q-6.98032 5.34794 -9.69141 6.31055q-2.75435 -0.884479 -9.47363 -5.56738q-101.52 -70.585 -204.919 -70.585q-13.088 0 -26.2637 1.10938
q-26.361 2.15673 -78.2588 11.0498q-10.4226 1.78877 -16.959 2.87891q-1.24134 -10.5514 -3.8877 -32.6533q-9.49186 -79.2041 -12.8203 -118.771q-10.0689 -119.433 20.1777 -215.157q67.9515 -215.006 269.348 -285.502q15.8429 -5.5559 45.541 -19.7178
q13.5891 -6.49042 20.46 -9.55762q6.0626 3.19979 18.6426 10.3848q25.4175 14.5382 39.4365 20.4092q81.545 34.0671 130.035 82.377q97.632 97.7579 126.706 274.977zM969.871 6.75977q0 -11.951 5.49036 -14.7866q5.49036 -2.83568 31.0135 -2.8364v-8.81055h-196.361
v8.81055q23.4251 0 29.1247 2.94381q5.69956 2.94381 5.69956 14.6783v228.25q0 14.1317 -4.73671 17.1357q-4.73671 3.00396 -28.8287 3.00396v7.55176h194.263v-7.55176q-24.8713 0 -30.2677 -3.27417q-5.39636 -3.27417 -5.39636 -16.8655v-228.249zM949.312 6.75977
v228.249q0 13.8868 -6.07209 17.0132q-6.07209 3.12644 -33.3674 3.12644q-30.3796 0 -37.4276 -3.4303t-7.04801 -16.7093v-228.249q0 -11.4453 6.48944 -14.1138q6.48944 -2.66844 35.4686 -2.66844q28.9997 0 35.4784 2.57926q6.47867 2.57926 6.47867 14.203z" />
    <glyph glyph-name="uniE61A" unicode="&#xe61a;" 
d="M496.302 60.542q-27.79 55.9887 -27.79 118.167q0 109.961 77.9726 187.933q77.9726 77.9716 187.937 77.9716q14.8769 0 29.543 -1.6416v119.805h-88.6494q-67.1975 0 -114.848 47.6508q-47.6508 47.6508 -47.6508 114.848v59.1064h-295.436
q-30.5436 0 -52.2035 -21.6596q-21.6598 -21.6596 -21.6598 -52.2037v-576.131q0 -30.5508 21.6577 -52.1983q21.6577 -21.6474 52.2056 -21.6474h278.922zM583.77 16.209h-366.39q-48.9539 0 -83.5668 34.6182q-34.6129 34.6182 -34.6129 83.5605v576.131
q0 48.9588 34.6101 83.5688q34.6101 34.6099 83.5695 34.6099h339.739v-103.422q0 -48.9369 34.6198 -83.5519q34.6198 -34.6151 83.5579 -34.6151h132.954v-219.428q-35.584 12.6289 -73.8301 12.6289q-91.7846 0 -156.695 -64.9096t-64.9104 -156.692
q0 -96.6849 70.9541 -162.499v0zM583.77 16.209zM453.741 223.024h-236.345q-6.13816 0 -10.4641 4.32396q-4.32594 4.32396 -4.32594 10.4612v14.7617q0 6.12447 4.32615 10.4411q4.32615 4.31667 10.4639 4.31667h236.345q6.12128 0 10.4542 -4.31869
q4.33291 -4.31869 4.33291 -10.4391v-14.7617q0 -6.13262 -4.33279 -10.4589q-4.33279 -4.32627 -10.4543 -4.32627v0zM453.741 223.024zM498.059 370.75h-280.662q-6.13798 0 -10.464 4.32485q-4.32603 4.32485 -4.32603 10.4623v14.7559q0 6.11873 4.32731 10.4407
q4.32731 4.32198 10.4627 4.32198h280.662q6.11803 0 10.4516 -4.32427q4.33356 -4.32427 4.33356 -10.4384v-14.7559q0 -6.13282 -4.33228 -10.46q-4.33228 -4.32714 -10.4529 -4.32714v0zM498.059 370.75zM571.922 533.263h-354.525q-6.13817 0 -10.4641 4.31567
t-4.32593 10.4412v14.7559q0 6.1377 4.32617 10.4639q4.32617 4.32617 10.4639 4.32617h354.525q6.11817 0 10.4375 -4.32703q4.31933 -4.32703 4.31933 -10.463v-14.7559q0 -6.12322 -4.31918 -10.44t-10.4377 -4.31681v0zM571.922 533.263zM756.564 16.209
q64.1609 0 109.643 45.4821q45.4821 45.4821 45.4821 109.643q0 64.1354 -45.4843 109.618q-45.4843 45.4826 -109.641 45.4826q-64.1307 0 -109.616 -45.4851q-45.4849 -45.4851 -45.4849 -109.615q0 -64.1561 45.4829 -109.641t109.618 -45.4844zM756.564 -28.1064
q-82.6102 0 -141.014 58.4113q-58.4034 58.4113 -58.4034 141.028q0 82.618 58.4018 141.017q58.4018 58.399 141.015 58.399q82.6196 -0.0117193 141.03 -58.4102q58.4099 -58.3984 58.4099 -141.006q0.00146488 -82.6077 -58.4119 -141.024
q-58.4133 -58.4159 -141.028 -58.4159v0zM756.564 -28.1064zM852.601 134.388h-118.18h-14.7734q-6.11646 0 -10.4454 4.32898q-4.32898 4.32898 -4.32898 10.4454v118.179q0 6.12538 4.32758 10.4494q4.32758 4.32403 10.4468 4.32403h14.7852q6.11866 0 10.4382 -4.32471
q4.31958 -4.32471 4.31958 -10.4595v-88.6211h103.41q6.11912 0 10.4463 -4.32775q4.32716 -4.32775 4.32716 -10.4613v-14.7578q0 -6.11638 -4.32882 -10.4454q-4.32882 -4.32902 -10.4446 -4.32902v0zM852.601 134.388zM705.466 710.519l-59.6807 48.8398v-48.8398
h59.6807zM763.947 666.198h-132.937q-12.2358 0 -20.8977 8.65401q-8.66191 8.65401 -8.66191 20.8929v103.406q0 12.231 8.66309 20.8889q8.66309 8.65795 20.8965 8.65795l162.5 -132.952q0.00878896 -12.2416 -8.6491 -20.8947q-8.65789 -8.65315 -20.9144 -8.65315v0z
M763.947 666.198z" />
    <glyph glyph-name="uniE61B" unicode="&#xe61b;" 
d="M652.404 827.167l258.028 -264.006v-471.965q0 -48.7899 -35.1622 -83.2792q-35.1622 -34.4893 -84.8905 -34.4893h-525.274q-49.7444 0 -84.9122 34.4886q-35.1678 34.4886 -35.1678 83.2799v618.203q0 48.7839 35.1689 83.2757q35.1689 34.4919 84.9112 34.4919
h387.299zM638.139 788.586v-226.386h221.248zM872.915 91.1963v434.224h-234.776h-36.7979v36.7803v228.169h-336.235q-34.1463 0 -58.3549 -23.7388q-24.2086 -23.7388 -24.2086 -57.231v-618.203q0 -33.4917 24.2087 -57.2312q24.2087 -23.7395 58.3547 -23.7395h525.275
q34.1297 0 58.3319 23.7401q24.2023 23.7401 24.2023 57.2306zM872.915 91.1963zM329.031 488.606h397.423v-29.4248h-397.423v29.4248zM329.031 488.606zM329.031 356.146h397.423v-29.4375h-397.423v29.4375zM329.031 356.146zM329.031 238.39h397.423v-29.4375h-397.423
v29.4375zM329.031 238.39z" />
    <glyph glyph-name="uniE61D" unicode="&#xe61d;" 
d="M527.603 819.45q113.867 0 210.419 -56.0864q96.5522 -56.0864 152.638 -152.64q56.0862 -96.5537 56.0862 -210.423q0 -113.858 -56.0858 -210.41q-56.0858 -96.5522 -152.639 -152.642q-96.5535 -56.09 -210.418 -56.09q-113.867 0 -210.422 56.0901t-152.641 152.642
q-56.086 96.552 -56.086 210.41q0 113.869 56.0866 210.423q56.0866 96.5537 152.64 152.64q96.5533 56.0864 210.422 56.0864zM527.603 33.5518q99.6264 0 184.111 49.0804q84.4851 49.0804 133.563 133.564q49.0775 84.4837 49.077 184.105q0 99.6298 -49.0777 184.115
q-49.0777 84.4854 -133.562 133.564q-84.484 49.0781 -184.112 49.0781q-99.6294 0 -184.114 -49.0781q-84.4849 -49.0781 -133.563 -133.563q-49.0778 -84.4853 -49.0778 -184.115q0 -99.621 49.0775 -184.105q49.0775 -84.4835 133.563 -133.564
q84.4858 -49.0805 184.114 -49.0805zM527.603 33.5518zM750.611 400.303q10.7193 0 18.293 -7.67032q7.57371 -7.67032 7.56638 -18.523q0 -10.8571 -7.56173 -18.5277q-7.56173 -7.67057 -18.2693 -7.67057h-223.403q-11.8229 0 -19.6113 9.30176
q-6.21973 7.31358 -6.21973 16.5273l-0.0117188 0.368164v262.347q0.00805494 10.7072 7.67988 18.2603q7.67183 7.55313 18.5301 7.55313q10.8465 0 18.5263 -7.56043q7.67978 -7.56043 7.67978 -18.253l-0.0126953 -236.152h196.814zM750.611 400.303z" />
    <glyph glyph-name="uniE61E" unicode="&#xe61e;" 
d="M676.791 102.513l-0.00390625 -74.4775h186.185v-55.8584h-670.312v55.8584h186.2v74.4775q0 7.71656 5.45691 13.1683q5.45691 5.45178 13.1681 5.45178h260.682q7.71181 0 13.1679 -5.45136q5.45611 -5.45136 5.45611 -13.1688zM900.235 828.679
q23.1487 -0.00488281 39.506 -16.3552q16.3573 -16.3504 16.3573 -39.5032v-521.351q0 -23.1347 -16.3603 -39.4965q-16.3603 -16.3619 -39.503 -16.3619h-744.813q-23.1426 0 -39.5029 16.3629q-16.3603 16.3629 -16.3603 39.4955v521.351q0 23.1529 16.3573 39.5056
q16.3573 16.3528 39.506 16.3528h744.813zM900.235 270.128v484.105q0 7.71572 -5.45576 13.1679q-5.45576 5.4522 -13.1634 5.4522h-707.573q-7.7204 0 -13.1703 -5.44907q-5.44986 -5.44907 -5.44986 -13.171v-484.105q0 -7.71916 5.45028 -13.1696
q5.45028 -5.45048 13.1698 -5.45048h707.573q7.7078 0 13.1635 5.45192q5.45567 5.45192 5.45567 13.1682zM269.982 324.843h31.7207v297.554l166.173 24.9268l26.1201 -8.80566l22.2568 -174.411l8.6084 -7.45215v272.736l166.172 24.9268l70.0117 -23.5908v-405.885
h24.6338v-40.3613h-134.992v423.012l-85.457 -12.8125v-410.198h-137.711v316.022l-85.4424 -12.8125v-303.21h-72.0889v40.3662zM614.527 626.449v0.00390625q2.41551 0.261834 9.66016 1.03906q8.75841 0.941139 9.7627 1.05176v-31.4072
q-5.76812 -0.561101 -9.7627 -0.925781q-1.87261 -0.170906 -5.31603 -0.496988q-3.44342 -0.326082 -4.34412 -0.410239v31.1455zM614.527 681.34v0.00585938q1.42696 0.18997 4.6749 0.614171q3.24794 0.424201 4.98526 0.657313q0.798211 0.105288 9.7627 1.28223
v-31.4736q-5.30617 -0.615047 -9.7627 -1.15527q-2.19917 -0.248561 -9.66016 -1.1416v31.2109zM614.527 571.611v0q0.789055 0.0657746 4.28152 0.360517q3.49246 0.294743 5.37864 0.448077q5.79858 0.504072 9.7627 0.823242v-31.4082
q-2.2474 -0.160769 -9.7627 -0.692383q-1.65025 -0.110216 -4.87433 -0.342008q-3.22408 -0.231792 -4.78583 -0.336703v31.1475zM614.527 516.771v0q1.13572 0.0700507 4.48165 0.275623q3.34593 0.205572 5.1785 0.319104q0.504889 0.0307841 4.16856 0.253241
q3.66367 0.222457 5.59414 0.341486v-31.4141q-1.83088 -0.0811047 -5.18258 -0.243101q-3.3517 -0.161997 -4.58011 -0.218813q-1.834 -0.0825827 -5.18254 -0.243921q-3.34853 -0.161339 -4.47762 -0.214087v31.1445zM614.527 461.932v0
q3.40248 0.139216 9.66016 0.364258q4.5474 0.183927 9.7627 0.359375v-31.4072q-1.5883 -0.0407012 -4.84577 -0.115479q-3.25747 -0.0747777 -4.91693 -0.117919q-2.81679 -0.0570339 -9.66016 -0.230469v31.1475zM579.668 622.69v0.00488281
q2.79959 0.295018 9.36523 1.01953q1.71233 0.177705 4.90101 0.519243q3.18868 0.341538 4.56188 0.48564v-30.9316q-3.78134 -0.357127 -9.46289 -0.888672q-1.24001 -0.118704 -4.43971 -0.422449q-3.1997 -0.303745 -4.92552 -0.470129v30.6836zM579.668 676.776v0
q2.70202 0.358682 9.36523 1.2334q8.61192 1.12842 9.46289 1.23926v-31.002q-1.27099 -0.151421 -4.49727 -0.528664q-3.22628 -0.377243 -4.96562 -0.587547q-8.3129 -0.966857 -9.36523 -1.08887v30.7344zM579.668 568.675v0q1.47509 0.123891 4.60474 0.388568
q3.12965 0.264677 4.76049 0.401471q2.84663 0.237441 9.46289 0.794922v-30.9307q-4.5378 -0.310923 -9.46289 -0.677734q-1.77298 -0.119968 -5.01173 -0.351253q-3.23875 -0.231285 -4.3535 -0.308903v30.6836zM579.668 514.663v0q1.42847 0.0903185 4.56656 0.281635
q3.13809 0.191317 4.79868 0.297466q4.09673 0.233334 9.46289 0.576172v-30.9512q-4.09251 -0.188205 -9.46289 -0.444336q-4.48468 -0.213956 -9.36523 -0.449219v30.6895zM579.668 460.642v0.00585938q1.64787 0.0585747 4.78737 0.173916
q3.1395 0.115342 4.57786 0.166904q6.76068 0.2525 9.46289 0.364258v-30.9512q-1.03203 -0.0254822 -4.35008 -0.102461q-3.31805 -0.076979 -5.11281 -0.125078q-6.43841 -0.136518 -9.36523 -0.21582v30.6836zM614.527 406.462v0q1.65295 0.016151 9.66016 0.129883
q1.50423 0.0154373 4.76848 0.058072q3.26425 0.0426347 4.99421 0.0591155v-31.3799h-9.7627h-9.66016v31.1328zM579.668 405.985v0q1.34326 0.020282 4.50278 0.0612762q3.15951 0.0409941 4.86246 0.0686066q1.6526 0.0169735 4.82042 0.0571624
q3.16782 0.040189 4.64247 0.0561188v-30.8994h-9.46289h-9.36523v30.6562zM356.318 519.062v0.00390625q1.15708 0.117168 4.36102 0.439425q3.20394 0.322257 4.9671 0.501981q1.44272 0.143418 4.60685 0.448326q3.16413 0.304908 4.82479 0.471596v-31.0098
q-1.6825 -0.14318 -4.85616 -0.409641q-3.17366 -0.26646 -4.57548 -0.385281q-1.693 -0.145023 -4.84163 -0.40463q-3.14863 -0.259607 -4.48649 -0.372714v30.7168zM391.107 522.522v0.00488281q1.73709 0.165938 4.99466 0.489848q3.25756 0.32391 4.6987 0.463277
q1.71168 0.173806 4.99399 0.496689q3.28232 0.322883 4.8019 0.475967v-31.5762q-7.51989 -0.637241 -9.7959 -0.822266q-1.83872 -0.14892 -5.20726 -0.432962q-3.36854 -0.284042 -4.4861 -0.376609v31.2773zM391.107 577.529v0q1.46093 0.184163 4.70457 0.599415
q3.24364 0.415253 4.98879 0.633983q1.26403 0.163495 4.60602 0.58878q3.34198 0.425284 5.17133 0.665127v-31.6094q-0.157636 -0.0181779 -9.77734 -1.10254q-7.88977 -0.880576 -9.69336 -1.07031v31.2949zM391.107 467.534v0.00585937
q1.4356 0.095041 3.05159 0.210311q1.61599 0.11527 3.58954 0.259716q1.97355 0.144446 3.05224 0.221379q1.81794 0.131305 5.18944 0.367446q3.37151 0.236142 4.60646 0.32396v-31.5762q-0.384019 -0.0211637 -4.12978 -0.233119q-3.74576 -0.211956 -5.66612 -0.308873
q-1.0262 -0.0595438 -9.69336 -0.546875v31.2764zM391.107 412.545v0q4.8457 0.203613 9.69336 0.429688q1.36972 0.0558817 4.68087 0.198941q3.31114 0.143059 5.11503 0.214145v-31.5723q-1.53499 -0.0477553 -4.81413 -0.139673t-4.98177 -0.14646
q-5.38731 -0.130246 -9.69336 -0.261719v31.2773zM391.107 357.557v0q1.78567 0.0291493 5.07236 0.0791929t4.621 0.0711978q1.07602 0.0165842 4.49019 0.0682095q3.41417 0.0516253 5.28715 0.0812045v-31.5264h-9.77734h-9.69336v31.2266zM356.318 573.112v0
q0.899066 0.11373 4.20774 0.53466q3.30868 0.42093 5.12038 0.647957q7.13937 0.905492 9.43164 1.20703v-31.0498q-1.56061 -0.172212 -4.70982 -0.527197q-3.14921 -0.354985 -4.72182 -0.528467q-1.98607 -0.219161 -9.32812 -1.03906v30.7549zM356.318 465.046v0
q1.47617 0.109432 4.58834 0.333442q3.11217 0.22401 4.73978 0.345269q4.35917 0.298852 9.43164 0.676758v-31.0322q-1.76857 -0.104195 -5.02567 -0.282214q-3.2571 -0.178018 -4.40597 -0.243177q-1.39947 -0.0754701 -4.53204 -0.250979
q-3.13257 -0.175509 -4.79608 -0.26367v30.7168zM356.318 411.029v0q6.06109 0.25621 9.32812 0.414062q5.86058 0.244723 9.43164 0.415039v-31.0342q-1.65413 -0.04125 -4.81597 -0.133171q-3.16185 -0.0919213 -4.61567 -0.129524
q-1.62236 -0.0434921 -4.73357 -0.134437t-4.59456 -0.131188v30.7334zM356.318 357.014q6.82632 0.105517 9.32812 0.132812q1.21509 0.0196898 4.44752 0.0698089q3.23243 0.050119 4.98412 0.0796052v-30.9639h-9.43164h-9.32812v30.6816zM356.318 357.014z" />
    <glyph glyph-name="uniE61F" unicode="&#xe61f;" 
d="M562.861 796.332v-70.9697h-57.375v70.9697q0 11.5791 8.45844 19.3647q8.45844 7.78566 20.6412 7.78566q11.4246 0 19.7714 -7.83466q8.34677 -7.83466 8.504 -19.3157zM903.906 566.399l-47.5586 -35.209l-28.1162 47.6318l47.1934 35.3301
q4.98828 2.87109 15.7666 2.87109q13.9221 -1.50609 21.7197 -13.6895q5.72212 -10.3787 2.91919 -21.0948q-2.80293 -10.7161 -11.9241 -15.8397zM332.191 665.979l-36.1748 61.2871q-5.85346 10.3507 -2.87378 20.6992q2.97968 10.3485 12.9099 16.2959
q6.79095 3.80762 16.1074 3.80762q14.2341 -1.49566 22.1992 -13.6523l37.1533 -61.2832zM773.976 727.268l-37.1582 -61.124l-49.3252 27.1455l36.1699 61.2842q6.29215 9.05197 17.3687 12.1093t21.9302 -2.4198q10.5155 -5.14052 13.7672 -15.9392
q3.25171 -10.7987 -2.75256 -21.0559zM241.763 577.71l-28.1162 -47.791l-64.4492 35.8789q-10.4568 5.82666 -13.2747 16.2972q-2.81781 10.4706 3.24438 20.6969q9.19439 15.2911 28.1152 13.6572q5.58989 0 10.0312 -2.86133zM807.987 379.314v-289.11h-535.858v289.11
q0 102.324 78.5069 174.535q78.5069 72.2111 189.422 72.2111q110.82 0 189.375 -72.2241q78.5547 -72.2241 78.5547 -174.522zM751.577 146.611v244.838q0 71.7384 -66.4992 124.973q-66.4992 53.2343 -145.02 53.2343q-78.5864 0 -145.055 -53.2284
q-66.469 -53.2284 -66.469 -124.979v-244.838h423.044zM906.697 33.7979q5.83984 0 9.96973 -4.12988q4.12988 -4.12988 4.12988 -9.97363v-28.2041q0 -5.83786 -4.13109 -9.96776q-4.13109 -4.1299 -9.97243 -4.1299h-733.274q-5.84247 0 -9.97299 4.12973
q-4.13052 4.12973 -4.13052 9.96792v28.2041q0 5.84439 4.12996 9.97395q4.12996 4.12956 9.97356 4.12956h733.278zM645.479 482.179q11.8725 -3.8426 17.4277 -14.8818q5.51122 -11.0164 1.43066 -22.7402l-42.7305 -155.569q-3.43234 -9.87308 -12.418 -15.5889
q-7.83178 -4.98169 -17.0967 -4.85645l-111.789 54.6865l-33.5 -91.9541q-1.13661 -14.8897 -14.0029 -23.0693q-8.49807 -5.40162 -18.5859 -4.78223q-12.5331 0.785193 -20.745 10.054q-8.21196 9.26882 -7.26572 21.5641l54.1816 125.961
q1.16266 14.8888 14.0068 23.0635q7.82967 4.97544 17.0703 4.84277l99.9268 -60.0859l35.4814 134.42q3.45722 9.89676 12.3926 15.5742q12.3626 7.86993 26.2158 3.3623zM645.479 482.179z" />
    <glyph glyph-name="uniE620" unicode="&#xe620;" 
d="M103.576 569.663v56.9453h112.699v-56.9453h-112.699zM103.576 174.244v56.9453h112.699v-56.9453h-112.699zM867.111 824.614q35.142 0 59.9909 -24.8481q24.8489 -24.8481 24.8489 -59.9908v-678.702q0 -35.1378 -24.8494 -59.9864
q-24.8494 -24.8486 -59.9904 -24.8486h-650.421v848.376h650.421zM895.391 89.3564v622.14q0 23.427 -16.5648 39.9938q-16.5648 16.5668 -39.9909 16.5668h-565.584v-735.259h565.584q23.427 0 39.9913 16.5655q16.5643 16.5655 16.5643 39.9931zM640.881 570.1h56.5566
l-56.5576 -141.393h56.5576v-28.2793h-84.835v-56.5605h84.834v-28.2793h-84.835v-84.835h-56.5615v84.835h-84.835v28.2793h84.835v56.5605h-84.835v28.2793h56.5576l-56.5576 141.393h56.5576l56.5605 -141.393zM640.881 570.1z" />
    <glyph glyph-name="uniE621" unicode="&#xe621;" 
d="M909.351 151.982q-20.1007 -31.5583 -53.8311 -50.5801q-33.744 -18.9932 -71.4414 -18.9932q-37.5633 0 -71.4902 19.0449q-33.9689 19.1125 -53.834 50.4707q-2.8291 4.71757 -2.8291 9.44336q0 4.60205 2.8291 9.44434q20.1582 31.4802 53.834 50.4746
q33.8502 19.0449 71.4902 19.0449q37.5898 0 71.4414 -19.0449q33.9672 -19.1157 53.8311 -50.4746q2.83203 -4.558 2.83203 -9.38574q0 -4.59957 -2.83203 -9.44434zM753.237 208.482q-12.8022 -12.2413 -12.8008 -29.3975q0 -2.67191 2.02539 -4.69434
q2.00136 -1.9209 4.85645 -1.9209q2.937 0 4.85059 1.9209q2.02734 1.94133 2.02734 4.69434q0 11.9195 8.75195 20.1123q8.69466 8.37793 21.0205 8.37793q2.84745 0 4.85742 1.92188q2.02539 1.86526 2.02539 4.63965q0 2.6684 -2.02441 4.69727
q-2.00997 1.92188 -4.85645 1.92188q-17.8977 0 -30.7334 -12.2734zM846.287 116.662q28.557 16.6817 47.5938 44.7646q-21.8433 32.5209 -54.5254 48.3906q8.74805 -14.2925 8.74805 -30.8398q0 -25.3972 -18.7812 -43.377q-18.8428 -18.0371 -45.2441 -18.0371
q-26.4791 0 -45.2412 18.0371q-18.7812 17.9769 -18.7812 43.377q0 16.6758 8.74805 30.8398q-32.8392 -16.1015 -54.5254 -48.3906q19.0707 -28.1352 47.6992 -44.7646q28.6446 -16.6504 62.1562 -16.6504q33.5087 0 62.1533 16.6504zM927.865 164.357
q3.05784 0 6.18157 -0.00291438q3.12373 -0.00291438 5.66733 -0.00752139q2.5436 -0.00460701 4.91097 -0.0102389q2.36737 -0.00563194 4.12116 -0.0111258q1.75379 -0.00549391 3.07531 -0.0101194q1.32152 -0.00462546 1.99602 -0.00728223l0.674596 -38.3111
q0 -14.2243 -7.70144 -21.4632q-7.70144 -7.23893 -31.0876 -7.23893h-39.5381q19.3198 12.6639 36.1506 31.5734q16.8308 18.9095 15.5496 35.4891zM648.933 184.686q-37.9326 -30.6855 37.9873 -87.4453l-80.9629 15.5498l80.9082 -15.5508h-469.676h-89.418
q-15.7715 -0.239258 -19.278 8.66599q-7.49347 20.0948 -7.98761 20.9444v36.1758h89.4229v477.345q0.0712891 12.6299 7.9707 20.9473q8.08145 8.66211 19.291 8.66211h606.794q11.0156 0.0205078 19.291 -8.66211q7.97168 -8.58341 7.97168 -20.9473v-396.034
q-16.2471 8.66406 -38.8408 13.9258v369.73h-583.53v-442.721q405.124 -0.271484 420.057 -0.585938zM577.916 143.125v19.2051h-111.668v-19.2051h111.668zM495.453 406.315q-0.47524 10.1572 10.1572 10.1572h91.4199q9.96973 -0.472656 10.1592 -10.1572
q-0.186566 -10.1582 -10.1592 -10.1582h-91.4199q-10.6104 -0.157227 -10.1572 10.1582zM434.506 518.233q0.494141 15.7666 12.3047 28.2051q12.0596 12.4277 28.3262 12.4277h121.893l71.1025 -81.5068v-20.0713v-142.209q-0.131836 -16.0791 -12.3047 -28.2051
q-11.4154 -12.4258 -28.3262 -12.4258h-10.1582q-0.342773 -15.4482 -12.3047 -28.2051q-12.2176 -12.4258 -28.3252 -12.4258h-152.368q-16.3447 0.182617 -28.3262 12.4248q-12.3047 13.0615 -12.3047 28.2061v203.154q0.286133 16.3975 11.5703 28.126
q10.3109 11.8078 27.4766 12.2217zM576.716 254.132q8.40494 0 14.127 6.24707q6.15723 6.62109 6.20703 14.0693h-121.892q-16.1582 -0.448242 -28.3281 12.4258q-12.3047 12.6125 -12.3047 28.2051v182.84l-11.1348 -0.325195q-8.39062 -0.59375 -13.624 -6.05957
q-5.73535 -6.49877 -5.73535 -13.9307v-203.155q-0.03125 -7.44824 6.18555 -14.0645q5.66377 -6.25195 14.1299 -6.25195h152.369zM597.03 538.247v-30.4346q-0.0302734 -8.8125 6.37988 -19.5371q6.58984 -10.2754 13.9375 -10.6719l30.4727 0.000976563zM576.715 497.655
q0.285156 17.3447 0 40.8955h-101.578q-8.13672 0.449219 -14.1318 -6.25293q-6.18555 -6.48733 -6.18555 -14.0635v-203.155q0.180664 -8.0791 6.18555 -14.0645q6.23262 -6.25293 14.1318 -6.25293h152.366q7.49707 0.238281 14.1299 6.25293
q6.36719 5.98535 6.18652 14.0645l-0.000976563 142.209h-30.4727q-16.3457 -0.288086 -28.3955 12.2354q-11.9502 12.4766 -12.2354 28.1318zM597.03 365.745q9.97436 0 10.1592 -10.1592q-0.181798 -10.1582 -10.1592 -10.1582h-91.4199
q-10.6104 -0.427734 -10.1572 10.1582q-0.442035 10.1592 10.1572 10.1592h91.4199z" />
    <glyph glyph-name="uniE622" unicode="&#xe622;" 
d="M713.56 128.796q87.2289 -26.4112 87.2266 -71.3447q0 -44.9397 -87.2285 -71.3486q-77.3826 -23.4209 -185.895 -23.4209q-108.506 0 -185.896 23.4209q-87.2285 26.4111 -87.2285 71.3486q0 44.9327 87.2285 71.3438q69.6253 21.0702 166.575 23.21l-26.502 252.519
q-74.9901 15.949 -124.199 76.0181q-49.2091 60.0692 -49.2091 138.405q0 90.8079 64.212 155.02q64.212 64.2118 155.02 64.2118q90.8106 0 155.023 -64.2117q64.2129 -64.2117 64.2129 -155.02q0 -78.3454 -49.2197 -138.418q-49.2197 -60.0723 -124.223 -76.014
l-26.7168 -252.503q97.1318 -2.11652 166.818 -23.2158zM407.684 679.403q0 -25.2479 17.8544 -43.1015t43.1026 -17.8536q25.2478 0 43.1029 17.8537q17.8551 17.8537 17.8551 43.1013q0 25.2495 -17.855 43.1033q-17.855 17.8538 -43.103 17.8538
q-25.2484 0 -43.1027 -17.8539q-17.8543 -17.8539 -17.8543 -43.1031zM289.209 57.4531q0 -3.99157 4.85005 -9.48495q4.85005 -5.49339 19.894 -13.6339q15.0439 -8.14055 37.8683 -15.0501q71.2274 -21.5575 172.754 -21.9238l-12.5967 120.043
q-93.9247 -1.73834 -160.163 -21.7861q-22.821 -6.90794 -37.864 -15.0485q-15.043 -8.14057 -19.8927 -13.6334q-4.84969 -5.49287 -4.84969 -9.48211zM703.515 19.2842q22.8238 6.90946 37.8676 15.05q15.0439 8.14057 19.894 13.6337q4.85011 5.4931 4.8507 9.48427
q0 3.98926 -4.85009 9.48211q-4.85009 5.49285 -19.8945 13.6334q-15.0445 8.14058 -37.8677 15.0485q-66.3251 20.0778 -160.434 21.791l-12.7021 -120.047q101.756 0.320916 173.136 21.9238zM703.515 19.2842z" />
    <glyph glyph-name="uniE623" unicode="&#xe623;" 
d="M424.846 604.591l246.822 -190.082l-246.822 -162.521v352.604zM910.146 265.089q-5.87025 -13.876 -13.1572 -28.0586q31.8535 -43.6646 31.8535 -97.793q0 -68.9432 -48.8952 -117.694q-48.8952 -48.7506 -118.044 -48.7506q-72.6804 0 -122.114 53.3037
q-55.5425 -15.7734 -114 -15.7734q-84.8568 0 -162.374 32.79q-74.8616 31.6614 -132.591 89.3877q-57.7322 57.7322 -89.3906 132.588q-32.79 77.5261 -32.79 162.379q0 84.8582 32.79 162.383q31.6617 74.8619 89.3906 132.585q57.7224 57.7224 132.591 89.3926
q77.5266 32.7852 162.374 32.7852q84.8504 0 162.377 -32.7852q74.8684 -31.6702 132.591 -89.3926q57.7308 -57.7264 89.3896 -132.585q32.79 -77.5211 32.79 -162.383q0 -84.8563 -32.79 -162.379zM897.538 139.237q0 56.0176 -39.728 95.6274
q-39.728 39.6099 -95.9116 39.6099q-33.7077 0 -62.8126 -15.3778q-29.1049 -15.3778 -47.8827 -41.837h27.2246q6.48153 0 11.0655 -4.57011q4.58394 -4.57011 4.58394 -11.0334q0 -6.46348 -4.58403 -11.0345q-4.58403 -4.57099 -11.0654 -4.57099h-67.8213
q-6.48134 0 -11.0654 4.57099q-4.58403 4.57099 -4.58403 11.0345v62.415q0 6.46329 4.58394 11.0334q4.58394 4.57011 11.0655 4.57011q6.4836 0 11.0685 -4.57004q4.58486 -4.57004 4.58486 -11.0335v-28.0332q23.1463 32.2318 58.7813 50.9386
q35.635 18.7069 76.8574 18.7069q62.48 0 109.559 -40.8613q3.38995 7.1814 6.26562 13.9824q30.0152 70.9549 30.0078 148.663q0 77.7286 -30.0078 148.666q-28.9868 68.5376 -81.8604 121.411q-52.8721 52.8647 -121.41 81.8604q-70.9479 30.0078 -148.666 30.0078
q-77.7162 0 -148.664 -30.0078q-68.5423 -28.9876 -121.409 -81.8604q-52.8712 -52.8667 -81.8643 -121.411q-30.0088 -70.9537 -30.0088 -148.662q0 -77.7133 30.0088 -148.667q28.9942 -68.5469 81.8643 -121.411q52.8566 -52.8595 121.409 -81.8643
q70.9444 -30.0049 148.664 -30.0049q46.756 0 91.5664 11.0342q-10.1702 17.7105 -15.7422 37.2959q-0.0768782 0.17015 -0.184532 0.492328q-0.107654 0.322179 -0.140663 0.410015q-0.342865 0.894365 -0.395508 1.08789q-0.71582 3.01866 -0.71582 4.38574
q0 6.46222 4.58438 11.0324q4.58438 4.57016 11.067 4.57016q10.9919 0 14.6377 -10.6045l0.272461 0.0839844q11.469 -44.1725 47.8906 -72.7405q36.4215 -28.5681 83.2735 -28.5681q56.1827 0 95.9107 39.6093q39.728 39.6093 39.728 95.6241zM829.72 141.838
q6.48328 0 11.0678 -4.56952q4.58453 -4.56952 4.58453 -11.034q0 -6.46335 -4.5847 -11.0334q-4.5847 -4.57008 -11.0676 -4.57008h-67.8174q-6.4842 0 -11.0678 4.57035q-4.58358 4.57035 -4.58358 11.0351v93.624q0 6.46233 4.58383 11.0329
q4.58383 4.57059 11.0656 4.57059q6.48228 0 11.0668 -4.57012q4.58454 -4.57012 4.58454 -11.0334v-78.0225h52.168z" />
    <glyph glyph-name="uniE624" unicode="&#xe624;" 
d="M527.616 830.738v0q116.951 0 216.124 -57.6094q99.1727 -57.6094 156.782 -156.78t57.6095 -216.119q0 -116.948 -57.6097 -216.12q-57.6097 -99.1724 -156.783 -156.783t-216.123 -57.6111q-116.948 0 -216.119 57.611q-99.1716 57.611 -156.781 156.784
q-57.6095 99.1725 -57.6095 216.12q0 116.948 57.6096 216.119q57.6096 99.1712 156.781 156.78q99.1713 57.6091 216.119 57.6091zM527.616 34.2949v0v731.868q-99.4039 0 -183.7 -48.968q-84.2957 -48.968 -133.265 -133.264q-48.9691 -84.296 -48.9691 -183.702
q0 -99.4073 48.9683 -183.703q48.9683 -84.296 133.264 -133.264q84.2956 -48.9676 183.701 -48.9676zM527.616 34.2949z" />
    <glyph glyph-name="uniE625" unicode="&#xe625;" 
d="M319.309 418.575v62.7861h340.029v-62.7861h-340.029zM319.309 563.268v62.7852h340.029v-62.7852h-340.029zM319.309 273.884v62.7812h194.433v-62.7812h-194.433zM935.42 222.362q-21.5953 -19.8636 -29.5875 -41.2841q-7.99226 -21.4205 -3.97349 -37.8032
q4.01877 -16.3827 11.1226 -29.9277q7.10381 -13.545 14.5367 -20.7772l7.43294 -7.2322q-0.526417 -0.57333 -29.3818 -49.8281q-30.206 7.77401 -51.5062 3.9371q-21.3003 -3.83691 -34.7179 -15.6933q-13.4176 -11.8564 -20.9987 -24.5492
q-7.58105 -12.6929 -10.3485 -22.6308l-2.76749 -9.9379h-59.9424q-8.28105 29.7935 -23.6734 47.7011q-15.3924 17.9076 -31.4451 22.184q-16.0527 4.27642 -30.9224 4.29662q-14.8697 0.0202061 -24.347 -3.35323l-9.47733 -3.37344l-31.7383 52.1826
q22.8964 21.7138 31.0595 43.7196q8.16311 22.0058 4.62294 37.2426q-3.54017 15.2367 -12.4586 28.5683q-8.9184 13.3315 -15.0125 18.6369q-6.09412 5.30539 -8.21139 6.50838q0.314421 0.366824 31.2637 51.9482q31.0537 -7.81779 52.6797 -3.9747
q21.626 3.84309 34.9731 15.7409q13.3472 11.8978 20.7134 24.6379q7.36622 12.7401 9.90041 22.7164l2.53419 9.97624h59.2393q5.33176 -27.4411 19.7864 -44.677q14.4546 -17.2359 31.2756 -22.2339q16.821 -4.99803 32.8803 -6.07591q16.0593 -1.07788 26.7055 1.287
l10.6462 2.36488q-0.422394 -1.02941 29.1377 -50.2969zM754.083 56.9551q40.3302 0 68.8506 28.5163q28.5204 28.5163 28.5204 68.8528q0 40.328 -28.522 68.8491q-28.522 28.5211 -68.8491 28.5211q-40.327 0 -68.8461 -28.5207q-28.5191 -28.5207 -28.5191 -68.8494
q0 -40.3358 28.5201 -68.8524q28.5201 -28.5167 68.8452 -28.5167zM175.549 110.973q0.151032 -26.2517 0.633342 -40.6688q0.48231 -14.4171 4.06047 -26.8704q3.57816 -12.4533 6.75393 -17.2698q3.17578 -4.81653 13.6798 -8.45311q10.504 -3.63658 19.5409 -4.0618
q9.03689 -0.425225 29.3033 -0.681928h295.226v-46.3311h-352.822q-29.9667 0 -51.1562 21.1899q-21.1895 21.1899 -21.1895 51.1558v723.466q0 29.9676 21.1892 51.1567q21.1892 21.189 51.1565 21.189h598.806q29.9678 0 51.1567 -21.189q21.189 -21.189 21.189 -51.1567
v-379.82h-55.9707v339.872q-0.910478 40.597 -8.82318 52.6693q-7.9127 12.0723 -41.1173 13.2917h-539.685q-31.3906 0 -36.6606 -6.81714q-5.27002 -6.81714 -5.27002 -47.1262v-623.544z" />
    <glyph glyph-name="uniE626" unicode="&#xe626;" 
d="M243.376 649.792v41.8799h418.749v-41.8799h-418.749zM243.376 189.206h289.439q0.593798 -20.3702 3.8291 -41.8809h-293.269v41.8809zM459.77 63.6162q22.686 -18.8262 29.0616 -25.1107q6.37561 -6.28455 21.9432 -25.1656h-351.115q-17.3734 0 -29.6271 12.2502
q-12.2537 12.2502 -12.2537 29.6229v728.617q0 17.3723 12.2543 29.6266t29.6266 12.2543h586.229q17.3272 0 29.5923 -12.2596q12.2651 -12.2596 12.2651 -29.6213v-239.206q-1.41265 0.0419638 -4.96555 0.281236q-3.5529 0.239272 -5.5032 0.239272
q-13.178 -0.00852075 -31.3887 -1.55273v231.84h-586.229v-711.815h300.11zM243.376 524.201v41.8799h418.749v-41.0029q-0.392375 -0.153602 -1.17373 -0.43782q-0.781355 -0.284218 -1.17881 -0.439133h-416.396zM243.376 440.438h386.88
q-18.8562 -19.3587 -34.6914 -41.8809h-352.188v41.8809zM243.376 272.969v41.8809h308.987q-7.90669 -22.2413 -12.1484 -41.8809h-296.839zM766.707 511.63q6.02831 0 47.5213 -70.5769q41.493 -70.5769 82.2422 -161.452q40.7492 -90.8751 40.7492 -133.371
q0 -70.6429 -49.935 -120.578q-49.935 -49.9354 -120.578 -49.9354q-70.6331 0 -120.573 49.9514q-49.9398 49.9514 -49.9398 120.562q0 42.6011 40.3042 133.377q40.3042 90.7763 81.7981 161.399t48.4104 70.6228zM690.782 42.6797q1.74329 6.64587 -4.96582 8.50098
q-20.0063 5.21436 -34.5793 37.3034q-14.573 32.089 -14.573 60.3734q0 6.96289 -6.96387 6.96289q-6.96387 0 -6.96387 -6.96289q0 -33.4623 16.89 -68.9543q16.89 -35.492 42.651 -42.1932q0.843144 -0.228516 1.76953 -0.228516q5.41601 0 6.73535 5.19824z
M718.869 9.625q8.99965 0 15.3743 6.36224t6.37469 15.3868q0 9.03452 -6.35735 15.3923q-6.35735 6.35774 -15.3917 6.35774q-9.02456 0 -15.3868 -6.37409t-6.36223 -15.3759q0 -9.02527 6.37432 -15.3871q6.37432 -6.36188 15.3747 -6.36188z" />
    <glyph glyph-name="uniE627" unicode="&#xe627;" 
d="M935.891 508.392q2.25391 -15.7773 2.25391 -29.0791q0 -7.18374 -0.943359 -17.7578q-6.78876 -79.1493 -65.6222 -133.491q-58.8334 -54.3419 -139.027 -54.3419q-58.1688 0 -107.354 30.2314q-58.5403 -30.2324 -124.747 -30.2324q-63.7483 0 -120.555 28.085
q-42.2482 -28.085 -93.2617 -28.085q-69.8705 0 -119.42 49.561t-49.5491 119.461q0 55.2857 32.3604 99.299t83.4286 61.0232q19.803 94.7167 94.6657 155.551q74.8626 60.834 172.33 60.834q20.7976 0 47.416 -4.76855q26.0652 -4.65012 49.5156 -13.5703
q35.5989 -13.4694 69.5762 -39.7139q22.0732 -17.105 37.6709 -34.7891q18.8066 -21.3187 30.8066 -41.6514q53.8617 -0.771621 99.4468 -27.6884q45.5851 -26.9168 72.769 -71.7052q13.988 -22.7248 21.4795 -48.5674q5.11906 -17.192 6.75977 -28.6045zM880.355 463.596
q0.893094 10.1056 0.833984 15.7695q0 9.18487 -2.98633 25.9863q-0.210465 1.08029 -0.367939 3.28054q-0.157474 2.20025 -0.363506 3.27122q-4.68432 20.3685 -15.9805 40.2881q-19.5678 34.485 -53.8665 55.1229q-34.2987 20.6378 -75.0749 20.6378
q-15.319 0 -34.7881 -4.66113q-24.8196 -6.0725 -45.8447 -19.7031q-10.7001 -6.78945 -15.7695 -11.1572q-9.04177 -7.65937 -20.8224 -6.70557t-19.3641 9.95264q-7.66525 8.9583 -6.7323 20.7417q0.932953 11.7834 9.92664 19.4438q10.4952 8.99785 25.8818 18.3906
q2.77377 1.67778 8.17219 4.22121q5.39842 2.54342 6.70965 3.21922q17.2542 8.62433 18.1279 8.96191q9.66764 3.80724 15.0352 5.34082q-11.2271 14.9308 -28.9736 30.8105q-35.5979 31.5213 -78.6943 45.2129q-23.223 7.39548 -46.8389 9.32715
q-12.5593 1.09863 -18.0752 1.09863q-71.4531 0 -128.125 -41.9019q-56.672 -41.9019 -77.6239 -108.988q69.1849 -3.36983 116.104 -54.124q8.04124 -8.6591 7.56421 -20.4803q-0.477031 -11.8212 -9.13647 -19.8116q-8.68686 -8.0091 -20.4983 -7.54272t-19.7937 9.11694
q-33.2704 35.9922 -82.3076 35.9922q-46.2945 0 -79.1292 -32.8131q-32.8347 -32.8131 -32.8347 -79.099q0 -46.3233 32.8355 -79.1695q32.8355 -32.8462 79.1284 -32.8462q38.6724 0 68.9492 23.7861q5.33139 4.25168 12.8877 5.55371q13.1703 5.66834 25.5156 -1.31055
q49.4741 -28.0293 106.464 -28.0293q53.4834 0 100.86 25.0918q0.203411 0.526933 0.418945 0.683594q7.22061 9.38482 18.9453 10.8804t21.0283 -5.74561q40.009 -30.9639 90.8506 -30.9639q57.1316 0 99.4393 38.3362t48.3127 94.5339zM272.592 63.0996
q0 -7.467 -4.68353 -12.798q-4.68353 -5.33095 -11.2462 -5.33095q-6.57423 0 -11.2754 5.31889q-4.70117 5.31889 -4.70117 12.81v141.464q0 7.49113 4.70117 12.81q4.70117 5.31889 11.2754 5.31889q6.57806 0 11.2539 -5.30162t4.67582 -12.8273v-141.464z
M368.366 43.2451q0 -7.47735 -4.69365 -12.8285q-4.69365 -5.35117 -11.2858 -5.35117q-6.56645 0 -11.2461 5.33765q-4.67967 5.33765 -4.67967 12.842v141.46q0 7.46751 4.68221 12.7977q4.68221 5.33021 11.2436 5.33021q6.60548 0 11.2925 -5.31261
q4.68701 -5.31261 4.68701 -12.8153v-141.46zM464.09 20.5566q0 -7.53611 -4.66045 -12.832q-4.66045 -5.29591 -11.2673 -5.29591q-6.62058 0 -11.2986 5.28341q-4.67799 5.28341 -4.67799 12.8445v141.464q0 7.50001 4.68633 12.814q4.68633 5.31396 11.2902 5.31396
q6.60725 0 11.2675 -5.2961q4.66024 -5.2961 4.66024 -12.8318v-141.464zM559.865 -0.712891q0 -7.51264 -4.67295 -12.8203q-4.67295 -5.30765 -11.3085 -5.30765q-6.57019 0 -11.2495 5.31504q-4.67926 5.31504 -4.67926 12.8129v141.46q0 7.51293 4.6672 12.8483
q4.6672 5.33533 11.2615 5.33533q6.63874 0 11.3101 -5.31788q4.67135 -5.31788 4.67135 -12.8657v-141.46zM655.641 20.5566q0 -7.53059 -4.6846 -12.8293q-4.6846 -5.29867 -11.2978 -5.29867q-6.61974 0 -11.2996 5.28376q-4.67988 5.28376 -4.67988 12.8442v141.464
q0 7.49912 4.68851 12.8135q4.68851 5.3144 11.291 5.3144q6.61419 0 11.2983 -5.29876q4.68412 -5.29876 4.68412 -12.8292v-141.464zM751.308 43.2451q0 -7.48935 -4.64549 -12.8345q-4.64549 -5.34517 -11.2295 -5.34517q-6.66066 0 -11.3201 5.32536
q-4.65942 5.32536 -4.65942 12.8543v141.46q0 7.49243 4.6614 12.8102q4.6614 5.31775 11.3181 5.31775q6.59608 0 11.2355 -5.30684q4.63946 -5.30684 4.63946 -12.8211v-141.46zM847.083 63.0996q0 -7.49257 -4.66006 -12.8107q-4.66006 -5.31817 -11.3175 -5.31817
q-6.59462 0 -11.2358 5.30842q-4.64117 5.30842 -4.64117 12.8205v141.464q0 7.51206 4.64117 12.8205q4.64117 5.30842 11.2358 5.30842q6.67281 0 11.3252 -5.28889q4.65237 -5.28889 4.65237 -12.84v-141.464z" />
    <glyph glyph-name="uniE628" unicode="&#xe628;" 
d="M929.23 16.1387q7.25325 0 12.3786 -5.11723q5.12532 -5.11723 5.13705 -12.3623q0.0153834 -7.25951 -5.09765 -12.3802q-5.11303 -5.12073 -12.3818 -5.12073h-42.2646h-169.16h-84.5264h-169.146h-84.5469h-169.125h-84.5625q-7.2445 0 -12.3625 5.12213
q-5.11798 5.12213 -5.11798 12.3788v803.312q0 7.2417 5.1189 12.3606q5.1189 5.1189 12.3616 5.1189q7.24547 0 12.3649 -5.11846q5.11945 -5.11846 5.11945 -12.361v-785.831h49.582v384.163q0 7.24244 5.12562 12.3629q5.12562 5.12048 12.3705 5.12048h169.109
q7.24079 0 12.3621 -5.12467q5.12131 -5.12467 5.12131 -12.3587v-384.164h49.5791v701.269q0 7.242 5.12576 12.3695q5.12576 5.12754 12.3586 5.12754h169.141q7.24337 0 12.3717 -5.12693q5.12832 -5.12693 5.12832 -12.3701v-701.268h49.5635v489.86
q0 7.24665 5.10635 12.3631t12.3565 5.11642h169.162q7.25522 0 12.3698 -5.11675q5.11458 -5.11675 5.11458 -12.3627v-489.861h24.7627zM362.143 16.1387v366.668h-134.145v-366.668h134.145zM615.815 16.1387v683.77h-134.146v-683.77h134.146zM869.503 16.1387v472.379
h-134.145v-472.379h134.145zM869.503 16.1387z" />
    <glyph glyph-name="uniE629" unicode="&#xe629;" 
d="M911.785 275.393q-11.5738 -3.25276 -28.7754 -3.16406q-16.9239 0.0844575 -19.7686 6.77832q-3.32455 7.85291 -3.52051 27.2969q-1.51641 155.729 0.283203 232.586q1.28473 55.0148 -46.2646 81.3682q-108.945 60.3757 -238.068 137.49
q-47.0311 28.0864 -94.1338 0.139648q-83.5698 -49.5846 -241.361 -139.579q-44.0628 -25.1281 -43.7197 -75.8926q0.932413 -138.134 0.0175781 -283.007q-0.310471 -50.3789 44.0928 -75.4629q136.757 -77.2378 244.906 -141.166q42.4683 -25.1039 83.6748 -1.06445
q21.8007 12.7227 116.228 67.2551q94.4274 54.5324 144.87 84.5877q7.79933 4.64998 17.2389 -5.3512q9.43961 -10.0012 12.485 -21.5912q3.04542 -11.59 -0.198568 -15.7802q-143.624 -86.2999 -284.947 -164.634q-48.2242 -26.7108 -103.867 5.13672
q-155.603 89.0801 -268.277 154.914q-58.1466 33.9712 -58.416 102.718q-0.49762 122.875 -0.0732422 302.384q0.166033 71.6417 63.249 107.888q152.131 87.4098 258.195 149.14q63.2219 36.8023 128.177 -1.3125q108.645 -63.767 251.564 -145.124
q67.4584 -38.3967 66.6797 -113.487q-0.270508 -25.9028 -0.270508 -273.065zM911.785 275.393zM563.746 307.546h105.016q0.970335 -18.3898 2.29492 -44.042h-108.683v-90.2344h-56.5742q-2.67466 58.1801 -4.08496 89.082h-110.078v44.5566h108.607v62.873h-108.253
q-0.891294 17.9505 -2.23438 45.084h97.9395q-10.6285 18.3624 -52.4121 90.5485q-41.7836 72.1861 -64.6446 111.684q26.7391 8.61937 47.5485 2.97034q20.8094 -5.64903 33.0472 -32.736q10.6597 -23.5959 23.7038 -48.6173q13.044 -25.0214 31.6833 -58.8481
q18.6392 -33.8267 27.3757 -50.267q8.42847 15.7306 26.5278 48.3473q18.0994 32.6167 30.8255 56.8132q12.7262 24.1965 23.1808 47.0075q12.6329 27.5646 30.7124 35.9709q18.0795 8.4063 49.0962 -0.76001q-64.3957 -110.318 -115.981 -198.681h89.5078
q2.51019 -32.0404 3.56934 -45.6035h-107.69v-65.1484zM563.746 307.546zM911.995 277.327q0 -10.96 -7.7521 -18.7139q-7.7521 -7.75388 -18.7127 -7.75388q-10.9628 0 -18.7148 7.75239q-7.752 7.75239 -7.752 18.7154q0 10.9604 7.75215 18.7121
q7.75215 7.75176 18.7146 7.75176q10.962 -0.00366231 18.7134 -7.75408q7.75141 -7.75042 7.75141 -18.7098zM911.995 277.327zM871.248 171.884q0 -10.617 -7.50652 -18.1239q-7.50652 -7.50691 -18.1195 -7.50691q-10.6139 0 -18.1194 7.50774
q-7.50557 7.50774 -7.50557 18.1231q0 10.6116 7.50552 18.1164q7.50552 7.50473 18.1195 7.50473q10.6135 0 18.1197 -7.50486q7.50625 -7.50486 7.50625 -18.1162zM871.248 171.884zM859.067 369.958h52.7178v-94.5654h-52.7178v94.5654zM859.067 369.958z" />
    <glyph glyph-name="uniE62A" unicode="&#xe62a;" 
d="M327.572 822.993h623.072v-623.072l-222.391 -222.526l-0.137695 0.128906v-0.128906h-623.069v623.071zM327.572 760.019l-159.506 -159.553h159.506v159.553zM697.28 600.466l178.018 178.018h-503.218v-178.018h325.2zM728.116 40.2305l159.692 159.69h-159.692
v-159.69zM906.143 244.422v502.062l-177.889 -178.019l-0.137695 0.136719v-324.181h178.026zM906.143 244.422z" />
    <glyph glyph-name="uniE62B" unicode="&#xe62b;" 
d="M932.868 511.95v0l-64.8652 12.7617q-13.4315 -18.4667 -31.9033 -31.9023l14.8916 -62.7363l-48.9141 -20.2061l-34.0273 54.2344q-22.8628 -3.27126 -45.7256 0l-35.0918 -54.2344l-48.9141 20.2061l14.8867 62.7363q-18.831 14.129 -32.9629 32.9609
l-62.7363 -13.8203l-20.2002 49.9795l54.2275 32.9619q-3.14938 22.0732 0 45.7246l-53.1689 35.0879l20.207 48.9141l61.6709 -14.8867q16.4812 21.9705 32.9629 32.9629l-13.8232 62.7363l49.9785 20.2051l34.0283 -54.2285q22.0743 3.14954 45.7197 0l34.0273 54.2285
l48.915 -20.2051l-13.8232 -62.7363q21.8358 -17.8605 31.8994 -32.9629l62.7412 14.8867l20.2002 -49.9785l-54.2275 -34.0234q3.26197 -22.8623 0 -45.7246l54.2275 -34.0264zM717.005 549.167v0q28.9273 -11.2499 57.4393 0.325839q28.512 11.5758 40.3898 40.0804
q11.949 28.7169 0.134399 57.2878q-11.8146 28.5709 -40.5406 40.5403q-28.9271 11.2491 -57.4391 -0.326881q-28.512 -11.576 -40.39 -40.0794q-11.9475 -28.7183 -0.131836 -57.2882q11.8157 -28.5699 40.5381 -40.5399zM661.713 220.594v0l-85.0674 -14.8877
q-6.21158 -29.5036 -22.3301 -55.292l48.9141 -68.0547l-48.9141 -49.9795l-69.1201 48.915q-24.4503 -15.2808 -55.2939 -23.3896l-14.8848 -82.9424h-70.1797l-13.8223 82.9424q-32.1495 8.92357 -55.292 23.3896l-68.0537 -47.8496l-48.915 49.9785l48.915 68.0557
q-15.4922 26.3334 -23.3965 56.3516l-81.876 14.8867v70.1846l81.876 13.8213q8.93729 32.1624 23.3965 55.2939l-47.8506 68.0547l49.9736 48.9141l68.0547 -48.9141q25.9739 14.6092 55.2939 22.3301l13.8213 82.9404h70.1846l14.8857 -82.9404
q32.1546 -8.93557 55.2939 -23.3955l68.0537 48.915l48.915 -48.915l-48.915 -69.1152q14.465 -23.1482 23.3906 -55.291l82.9424 -13.8281v-70.1787zM382.055 157.858v0q40.6741 0 69.2511 28.5764q28.577 28.5764 28.577 69.2517q0 40.6709 -28.5774 69.2471
q-28.5774 28.5762 -69.2508 28.5762q-40.6723 0 -69.2507 -28.5764q-28.5784 -28.5764 -28.5784 -69.2468q0 -40.6741 28.5784 -69.2511t69.2507 -28.577zM382.055 157.858z" />
    <glyph glyph-name="uniE62C" unicode="&#xe62c;" 
d="M942.967 145.097q-51.4763 -10.7494 -54.3506 -18.4014q-2.78633 -7.40289 -6.3418 -14.7197q3.7947 -5.11849 13.6643 -13.3375q9.86963 -8.21899 17.8419 -13.8787l7.97228 -5.65975l-83.3555 -84.8936q-33.3234 33.2154 -40.3867 35.9775
q-8.81983 -3.89586 -17.9219 -6.72168q-2.74262 -0.852865 -4.99335 -13.3619q-2.25073 -12.509 -3.13015 -24.5916l-0.879422 -12.0826l-84.3154 0.188477q-0.112733 1.02494 -0.322807 2.79557q-0.210074 1.77063 -0.919864 6.91643q-0.70979 5.1458 -1.48034 9.86935
q-0.770548 4.72355 -1.96673 10.5811q-1.19618 5.85751 -2.41903 10.1964q-1.22285 4.33889 -2.79726 7.57052q-1.5744 3.23164 -3.13889 3.77672q-6.30206 2.1822 -12.6699 4.97949q-3.72049 -0.838976 -18.5066 -9.52843q-14.7861 -8.68945 -27.712 -16.9594
l-12.9259 -8.26997l-64.6816 84.2256q27.5241 21.5047 37.8047 34.3525q-3.34883 7.10558 -5.94043 14.2031q-3.7717 3.32205 -17.0527 7.51565q-13.281 4.1936 -24.6762 6.72618l-11.3952 2.53258l-0.166992 84.2471q38.3839 7.60299 51.876 12.3037
q1.68919 5.07044 3.75098 10.2031q-0.936632 4.71007 -9.32115 15.2796q-8.38452 10.5696 -16.3007 18.7841l-7.91621 8.21455l62.6836 84.874q40.6331 -33.9911 50.7363 -38.9111q6.98135 3.18107 13.7021 5.1543q6.07595 1.56424 11.7754 15.4163
q5.69946 13.8521 8.36095 26.922l2.66149 13.0699l84.3994 -0.688477q15.0957 -53.5749 20.5469 -54.9287q7.88289 -2.27201 14.8945 -4.9707q4.48872 2.13238 17.1752 11.6995q12.6865 9.56714 23.1287 18.0681l10.4422 8.50095l62.6855 -83.5381
q-31.3282 -26.551 -37.8086 -38.5977q1.82987 -5.92096 3.38379 -12.1221q0.408854 -1.65712 14.5378 -5.34071t28.0534 -6.53863l13.9245 -2.85503zM728.494 81.249q44.0448 0 75.2036 31.1514q31.1587 31.1514 31.1587 75.206q0 44.0524 -31.1591 75.2054
q-31.1591 31.153 -75.2032 31.153q-44.0478 0 -75.208 -31.1531q-31.1602 -31.1531 -31.1602 -75.2053q0 -44.0557 31.1593 -75.2066q31.1593 -31.1508 75.2088 -31.1508zM457.913 428.415q-72.7636 0 -130.469 59.0411q-57.7051 59.0411 -57.7051 134.36
q0 75.8892 60.3708 140.749q60.3708 64.8601 132.513 64.8601q72.1891 0 131.353 -63.6135q59.1638 -63.6135 59.1638 -139.541q0 -74.9226 -61.0308 -135.39q-61.0308 -60.4669 -134.196 -60.4669zM500.47 386.482q26.1783 0 32.3074 -6.87195
q6.12913 -6.87195 -2.33417 -23.7863q-8.46331 -16.9143 -21.1592 -37.9382q-12.6959 -21.0239 -24.2799 -57.105q-11.584 -36.0812 -11.584 -73.5094q0 -15.5366 3.69611 -34.3761q3.69611 -18.8396 6.54758 -30.6784q2.85146 -11.8388 2.94219 -22.7794
q0.0907278 -10.9406 -7.48656 -16.1q-7.57729 -5.15939 -24.3722 -5.21941q-143.256 -0.491433 -246.552 14.6392q-103.297 15.1307 -94.7094 42.0014q24.2139 75.4941 48.3896 151.014q16.4843 51.4807 59.0352 76.0953q42.5508 24.6146 86.0859 24.6146h193.474z
M500.47 386.482z" />
    <glyph glyph-name="uniE62D" unicode="&#xe62d;" 
d="M734.321 568.316q0 -92.1454 -60.4391 -157.301q-60.4391 -65.1553 -145.91 -65.1553q-85.4677 0 -145.908 65.1558t-60.4405 157.3q0 92.1227 60.4426 157.282q60.4426 65.1589 145.906 65.1589q85.4634 0 145.906 -65.1589q60.4426 -65.1589 60.4426 -157.282z
M734.321 568.316zM99.8574 9.66602q1.04412 4.04096 3.30171 11.2129q2.25759 7.17189 11.7589 29.2519q9.50135 22.08 21.7476 43.831q12.2463 21.7511 34.5601 51.7226q22.3139 29.9715 48.818 56.3695q26.5041 26.398 65.8996 54.3288q39.3955 27.9308 84.5126 48.8282
l321.141 -2.3291q8.42117 -3.42115 22.7299 -10.3132q14.3087 -6.89209 53.1181 -32.6551q38.8094 -25.763 71.4942 -56.4824q32.6848 -30.7194 66.8975 -82.9203q34.2127 -52.2009 50.2886 -110.844zM99.8574 9.66602z" />
    <glyph glyph-name="uniE62E" unicode="&#xe62e;" 
d="M845.948 656.535q0.039548 -0.727976 0.0380859 -1.46777v-652.348q0 -10.9889 -7.75959 -18.7532q-7.75959 -7.76433 -18.7404 -7.76433h-583.012q-10.983 0 -18.7439 7.76431q-7.76096 7.76431 -7.76096 18.7533v795.57q0 10.9887 7.76049 18.7512
q7.76049 7.76246 18.7444 7.76246h437.256q0.13151 0 0.842773 -0.0224609q1.27173 -0.0462202 2.21094 -0.160156q9.26614 -1.07622 15.8047 -7.70312l145.486 -142.913q0.525671 -0.560951 0.576172 -0.614258q0.733048 -0.791687 1.07715 -1.19629
q0.372852 -0.447422 0.719727 -0.892578q0.227808 -0.287076 0.351562 -0.463867q0.450303 -0.604168 0.893555 -1.28809l0.217773 -0.338867q0.981102 -1.56184 1.74707 -3.25488q1.58305 -3.53875 2.08984 -7.34473l0.03125 -0.235352
q0.103935 -0.863577 0.168945 -1.84082zM700.236 735.068v-53.4717h54.4316zM792.982 29.248v599.306h-119.252q-10.9659 0 -18.7354 7.76516q-7.76951 7.76516 -7.76951 18.7485v116.704h-384.264v-742.523h530.021zM718.272 396q10.9684 0 18.7366 -7.7647
q7.76826 -7.7647 7.76826 -18.7499q0 -10.9926 -7.76789 -18.7595q-7.76789 -7.7669 -18.737 -7.7669h-367.258q-10.9817 0 -18.7413 7.76478q-7.75964 7.76478 -7.75964 18.7616q0 10.9895 7.76001 18.7521q7.76001 7.76258 18.741 7.76258h367.258zM324.514 480.869
q0 10.9888 7.76003 18.7532t18.7409 7.76438h367.258q10.9678 0 18.7363 -7.76659q7.76857 -7.76659 7.76857 -18.751q0 -10.9939 -7.76781 -18.7611q-7.76781 -7.76722 -18.7371 -7.76722h-367.258q-10.9818 0 -18.7414 7.76509q-7.75956 7.76509 -7.75956 18.7632z
M718.272 284.645q10.9675 0 18.7362 -7.76611q7.76868 -7.76611 7.76868 -18.7485q0 -10.9936 -7.76804 -18.7624q-7.76804 -7.76883 -18.7368 -7.76883h-367.258q-10.9814 0 -18.7412 7.7667q-7.75979 7.7667 -7.75979 18.7645q0 10.9889 7.76009 18.7518
q7.76009 7.76286 18.7409 7.76286h367.258zM718.272 173.263q10.9679 0 18.7364 -7.76691q7.76849 -7.76691 7.76849 -18.7526q0 -10.9932 -7.76785 -18.7603q-7.76785 -7.76706 -18.737 -7.76706h-367.258q-10.9811 0 -18.741 7.76606q-7.75994 7.76606 -7.75994 18.7613
q0 10.9894 7.76032 18.7545q7.76032 7.76507 18.7407 7.76507h367.258zM718.272 173.263z" />
    <glyph glyph-name="uniE62F" unicode="&#xe62f;" 
d="M872.076 207.727q16.0439 -18.5338 16.0439 -43.1533q-0.0131191 -27.1375 -19.3807 -45.8388t-46.9064 -18.7012h-141.848l-5.23438 -22.6387q-11.7552 -49.5842 -52.3145 -80.9332q-40.5593 -31.349 -92.9531 -31.349q-52.3943 0 -92.9564 31.3492
q-40.5621 31.3492 -52.321 80.933l-5.22949 22.6387h-141.879q-17.9751 0 -34.6321 8.05067q-16.657 8.05067 -25.3044 22.2657q-20.7077 34.1296 -0.256836 68.0645l65.9404 106.444v181.975q0 79.0026 53.8221 149.466t136.52 100.442l0.679688 10.6904
q2.35546 37.1103 30.0565 62.6723q27.701 25.5621 65.5607 25.5621q38.251 0 65.9692 -25.8432q27.7181 -25.8432 29.7066 -63.3619l0.540039 -10.1484q81.8011 -30.0445 134.59 -100.442q52.7889 -70.3972 52.7889 -149.037v-181.97zM529.482 25.0303
q32.4585 0 56.4421 16.1073q23.9836 16.1073 30.596 43.9972h-174.082q6.61339 -27.891 30.5964 -43.9977q23.983 -16.1068 56.4475 -16.1068zM526.872 775.623q-22.984 -0.597847 -27.0098 -29.876l55.8936 0.347656q-4.93895 28.9254 -28.8838 29.5283zM821.833 160.418
q6.44315 0 6.44141 6.07422q0 2.61435 -1.80957 4.26367q-2.03981 1.87474 -3.43066 4.20996l-67.2383 109.052q-2.55957 4.28181 -2.55957 9.2334v193.583q0 54.5189 -35.9996 106.152q-35.9996 51.6336 -92.3812 78.7157l-70.0557 12.6191
q-3.10059 0.552721 -5.10156 0.870117l-2.40039 -0.269531l-7.45703 1.03027l-2.42188 0.342773q-6.40995 0.929688 -8.54785 0.929688q-2.11114 0 -8.93555 -0.984375l-1.58496 -0.224609l-7.95508 -1.12305l-2.68457 0.34375q-1.75148 -0.267263 -3.94727 -0.645508
l-68.8047 -11.8799q-57.7109 -26.8801 -94.9897 -78.8301q-37.2788 -51.95 -37.2788 -107.047v-193.588q0 -4.9377 -2.55957 -9.22949l-68.584 -114.485q-1.85144 -3.0753 0.0458984 -6.1875q1.77739 -2.92578 5.50391 -2.92578h584.736zM821.833 160.418z" />
    <glyph glyph-name="uniE720" unicode="&#xe720;" 
d="M973 823q10 9 21.5 9t20.5 -9t9 -23v-832q0 -17 -13 -26q-20 -15 -38 3l-420 416q-4 4 -6 8.5t-3 9.5v-411q0 -17 -13 -26q-20 -15 -38 3l-419 416q-10 10 -10 23.5t10 22.5l419 416q15 15 33 6.5t18 -29.5v-411q1 5 3.5 9.5t5.5 8.5zM32 832q13 0 22.5 -9.5t9.5 -22.5
v-832q0 -13 -9.5 -22.5t-22.5 -9.5t-22.5 9.5t-9.5 22.5v832q0 13 9.5 22.5t22.5 9.5z" />
    <glyph glyph-name="uniE721" unicode="&#xe721;" 
d="M51 823l420 -416q4 -4 6 -8.5t3 -9.5v411q0 14 9 23t20 9t22 -9l420 -416q6 -6 8 -14.5t0 -17t-8 -14.5l-420 -416q-18 -18 -38 -3q-13 10 -13 26v411q-1 -5 -3 -9.5t-6 -8.5l-420 -416q-3 -4 -7.5 -6t-8.5 -2.5t-8.5 0t-8.5 2t-7 4.5t-5.5 6.5t-4 8.5t-1.5 10v832
q0 21 18.5 29.5t32.5 -6.5zM992 832q13 0 22.5 -9.5t9.5 -22.5v-832q0 -13 -9.5 -22.5t-22.5 -9.5t-22.5 9.5t-9.5 22.5v832q0 13 9.5 22.5t22.5 9.5z" />
    <glyph glyph-name="uniE722" unicode="&#xe722;" 
d="M225 896q13 0 22.5 -10.5t9.5 -26.5v-475q0 4 1 7.5t2.5 6.5t3.5 6t5 6l558 476q19 16 43.5 7t24.5 -33v-952q0 -24 -24.5 -33t-43.5 7l-558 476q-12 11 -12 26v-475q0 -10 -4.5 -18.5t-11.5 -13.5t-16 -5q-13 0 -22.5 10.5t-9.5 26.5v951q0 15 9.5 25.5t22.5 10.5z" />
    <glyph glyph-name="uniE723" unicode="&#xe723;" 
d="M863 896q13 0 22.5 -10.5t9.5 -25.5v-951q0 -16 -9.5 -26.5t-22.5 -10.5t-22.5 10.5t-9.5 26.5v475q0 -16 -12 -26l-558 -476q-19 -16 -43.5 -7t-24.5 33v952q0 24 24.5 33t43.5 -7l558 -476q12 -11 12 -26v475q0 16 9.5 26.5t22.5 10.5z" />
    <glyph glyph-name="uniE724" unicode="&#xe724;" 
d="M512 896q139 0 257 -68.5t186.5 -186.5t68.5 -257t-68.5 -257t-186.5 -186.5t-257 -68.5t-257 68.5t-186.5 186.5t-68.5 257t68.5 257t186.5 186.5t257 68.5zM727 368q6 7 6 16t-6 16l-305 285q-11 10 -24 4.5t-13 -19.5v-572q0 -6 3.5 -11.5t9.5 -8t12.5 -1.5t11.5 6z
" />
    <glyph glyph-name="uniE725" unicode="&#xe725;" 
d="M512 896q139 0 257 -68.5t186.5 -186.5t68.5 -257t-68.5 -257t-186.5 -186.5t-257 -68.5t-257 68.5t-186.5 186.5t-68.5 257t68.5 257t186.5 186.5t257 68.5zM384 160l-1 448q0 13 -9 22.5t-22 9.5h-1q-8 0 -15.5 -4.5t-11.5 -11.5t-4 -16v-448q0 -13 9 -22.5t22 -9.5h1
q13 0 22.5 9.5t9.5 22.5zM704 160v448q0 7 -2.5 12.5t-6.5 10t-10 7t-12 2.5h-1q-6 0 -12 -2.5t-10 -7t-7 -10t-3 -12.5v-448q0 -9 4.5 -16t12 -11.5t15.5 -4.5h1q13 0 22 9.5t9 22.5z" />
    <glyph glyph-name="uniE900" unicode="&#xe900;" 
d="M545.152 888.889zM972.444 810.219v-522.561q0 -46.9559 -23.0254 -93.4893q-22.9715 -46.4318 -60.3164 -90.2402q-37.3729 -43.7649 -85.1846 -82.7021q-48.0555 -39.1475 -97.1514 -69.5469q-49.5222 -30.6895 -95.7725 -50.7803q-46.3875 -20.1534 -81.501 -27.7266
l-11.0508 -1.87012l-10.1328 1.87012q-35.9398 7.55793 -83.3428 27.7266q-47.2817 20.1336 -98.5312 50.7803q-50.8316 30.3177 -100.381 69.5469q-49.1971 38.9557 -87.9424 82.7021q-38.8182 43.8918 -62.5713 90.2402q-23.9854 46.3844 -23.9854 93.4824v522.567
l37.7598 5.66016l423.609 80.832l431.893 -80.832l27.627 -5.66016v0zM513.06 821.049l-5.11328 1.02441l-363.562 -63.083v-329.692h368.676v391.751v0zM879.616 429.298h-366.557v-469.283q35.4807 8.31401 76.9424 25.3223q41.7799 17.1703 82.0049 40.2988
q40.5413 23.2836 78.002 51.6758q37.0654 28.0839 66.3467 61.0352q28.8353 32.4688 46.0449 67.6768q17.2158 35.0161 17.2158 71.3311v151.943v0zM879.616 429.298z" />
    <glyph glyph-name="uniE901" unicode="&#xe901;" 
d="M545.152 888.889zM977.749 -10.4746q18.4836 0 32.3673 -13.0213q13.8837 -13.0213 13.8837 -31.1105v-19.043q0 -18.0983 -13.8827 -31.1185q-13.8827 -13.0202 -32.3683 -13.0202h-931.498q-18.2886 0 -31.2136 12.925q-12.925 12.925 -12.925 31.2136v19.043
q0 18.2834 12.9254 31.2076q12.9254 12.9242 31.2133 12.9242h931.498zM977.749 -10.4746zM871.638 27.584q-18.2815 0 -31.2101 12.93q-12.9286 12.93 -12.9286 31.2087v219.74q0 18.2841 12.9257 31.2114q12.9257 12.9273 31.2129 12.9273h19.0361
q18.2867 0 31.2127 -12.9274q12.926 -12.9274 12.926 -31.2113v-219.74q0 -18.2839 -12.926 -31.2113q-12.926 -12.9274 -31.2127 -12.9274h-19.0361zM871.638 27.584zM137.486 26.8945q-18.288 0 -31.2133 12.9251q-12.9253 12.9251 -12.9253 31.2135v371.406
q0 18.2839 12.926 31.2113q12.926 12.9274 31.2127 12.9274h19.043q18.2827 0 31.2107 -12.928q12.928 -12.928 12.928 -31.2107v-371.406q0 -18.2872 -12.9273 -31.2129q-12.9273 -12.9257 -31.2114 -12.9257h-19.043zM137.486 26.8945zM387.392 26.8945
q-18.2841 0 -31.2114 12.9257q-12.9273 12.9257 -12.9273 31.2129v778.78q0 18.2839 12.926 31.2113q12.926 12.9274 31.2127 12.9274h19.0371q18.2873 0 31.2164 -12.9277q12.9291 -12.9277 12.9291 -31.211v-778.78q0 -18.2878 -12.9284 -31.2132
q-12.9284 -12.9255 -31.2171 -12.9255h-19.0371zM387.392 26.8945zM627.3 27.584q-18.2809 0 -31.2064 12.9296q-12.9255 12.9296 -12.9255 31.209v573.768q0 18.2873 12.9243 31.213q12.9243 12.9257 31.2075 12.9257h19.043q18.2839 0 31.2113 -12.926
q12.9274 -12.926 12.9274 -31.2127v-573.768q0 -18.2827 -12.928 -31.2107q-12.928 -12.928 -31.2107 -12.928h-19.043zM627.3 27.584z" />
    <glyph glyph-name="uniE902" unicode="&#xe902;" 
d="M545.152 888.889zM915.335 631.14l-62.4707 62.4785l-326.862 -326.884l-108.665 108.665l-295.815 -301.995l-71.1035 71.0762l366.919 373.119l108.665 -108.657l255.758 255.772l-67.1924 67.1924l265.159 64.0928zM915.335 631.14zM127.467 115.556h134.073v-243.534
h-134.073v243.534zM127.467 115.556zM349.532 237.326h134.073v-365.326h-134.073v365.326zM349.532 237.326zM579.961 360.811h134.073v-488.811h-134.073v488.811zM579.961 360.811zM804.096 480.896h134.116v-608.89h-134.116v608.89zM804.096 480.896z" />
    <glyph glyph-name="uniE903" unicode="&#xe903;" 
d="M545.152 888.889zM359.573 158.208q0 44.4532 26.9272 80.5069q26.9272 36.0538 70.1256 51.745v280.74h110.635v-280.626q43.2062 -15.7758 70.129 -51.848q26.9228 -36.0721 26.9228 -80.5183q0 -58.8659 -44.6258 -100.548t-107.68 -41.6818
q-63.0687 0 -107.751 41.6892q-44.6825 41.6892 -44.6825 100.54zM207.268 158.208q0 69.2761 33.3987 129.407q33.3987 60.1306 91.1599 99.7486v346.226q0 66.4741 52.7759 113.39q52.7759 46.9163 127.405 46.9163q74.6276 0 127.397 -46.9157
q52.7697 -46.9157 52.7697 -113.391v-346.226q57.7844 -39.6251 91.1749 -99.7166q33.3905 -60.0915 33.3905 -129.439q0 -117.717 -89.222 -200.91q-89.222 -83.1935 -215.51 -83.1935q-126.293 0 -215.516 83.1933q-89.2231 83.1933 -89.2231 200.91zM609.06 427.235
l-0.0146484 245.967q0 48.6292 -28.461 82.967q-28.461 34.3377 -68.5907 34.3377q-40.1298 0 -68.5913 -34.3378q-28.4615 -34.3378 -28.4615 -82.9669v-245.967v-83.5693q-49.8713 -22.6579 -83.1221 -65.1455q-41.4365 -53.9707 -41.4365 -120.427
q0 -85.6619 64.8758 -146.226q64.8758 -60.5646 156.742 -60.5646q91.7907 0 156.701 60.5765q64.9098 60.5765 64.9098 146.215q0 66.4452 -41.4365 120.427q-32.7474 42.0844 -83.1143 65.1455v83.5693zM609.06 427.235z" />
    <glyph glyph-name="uniE904" unicode="&#xe904;" 
d="M545.152 888.889zM456.163 796.024zM531.25 422.557zM461.014 345.813q40.2536 -40.1959 310.378 -310.208q0.101878 -0.101878 4.16016 -3.2002q-56.9298 -60.8275 -137.25 -96.4051q-80.3204 -35.5776 -171.999 -38.6043q-91.6781 -3.02672 -183.971 35.1978
q-102.234 43.4116 -170.741 124.882q-68.5075 81.4703 -92.6046 181.53q-24.0971 100.06 -2.20373 202.701q22.7982 106.88 90.5789 189.258q67.7807 82.3779 159.118 124.423q91.3375 42.0451 189.684 40.636v-7.35254q0 -322.227 -0.113281 -431.203
q-0.00921805 -6.69362 4.96387 -11.6553zM531.25 870.393q63.2394 2.75327 127.751 -16.2469q64.5113 -19.0002 121.794 -58.4927q57.2826 -39.4925 102.085 -93.516q44.8025 -54.0235 71.0037 -126.773q26.2012 -72.7494 26.1702 -152.807h-448.804v447.836z
M1017.14 346.639q2.65374 -72.909 -28.7714 -160.182q-31.4252 -87.2726 -102.642 -157.337q-205.631 204.351 -319.517 317.519h450.93zM885.725 29.1201z" />
    <glyph glyph-name="uniE905" unicode="&#xe905;" 
d="M545.152 888.889zM456.163 796.024zM531.25 422.557zM885.725 29.1201zM55.3027 383.282q-9.52255 0 -16.2564 6.73088q-6.73384 6.73088 -6.73384 16.2594v11.4912q0 9.52791 6.73393 16.2591q6.73393 6.73116 16.2563 6.73116h915.3q9.53084 0 16.2605 -6.7299
q6.7297 -6.7299 6.7297 -16.2603v-11.4912q0 -9.53101 -6.72961 -16.2606q-6.72961 -6.72961 -16.2606 -6.72961h-915.3zM20.8145 -122.503l373.597 479.914h58.9082l-308.929 -479.914h-123.576zM629.589 357.411l373.597 -479.914h-123.576l-308.936 479.914h58.915z
M501.454 357.411h22.2725l23.4873 -363.526h-69.4678zM180.174 567.203q-19.0452 0 -32.5128 13.4677q-13.4677 13.4677 -13.4677 32.5128v231.339q0 19.0452 13.4677 32.5128q13.4677 13.4677 32.5128 13.4677h662.4q19.0452 0 32.5128 -13.4677
q13.4677 -13.4677 13.4677 -32.5128v-231.339q0 -19.0452 -13.4677 -32.5128q-13.4677 -13.4677 -32.5128 -13.4677h-271.9v-108.237h-116.878v108.237h-273.622zM511.772 854.045q-50.5372 0 -86.272 -35.7364q-35.7348 -35.7364 -35.7407 -86.2763
q0 -50.5386 35.7371 -86.2756q35.7371 -35.7371 86.2756 -35.7371q50.5386 0 86.2756 35.7371q35.7371 35.7371 35.7371 86.2756q0 50.5386 -35.7371 86.2756q-35.7371 35.7371 -86.2756 35.7371z" />
    <glyph glyph-name="uniE906" unicode="&#xe906;" 
d="M545.152 888.889zM456.163 796.024zM531.25 422.557zM885.725 29.1201zM612.245 889.586l-157.539 -379.186l372.38 56.1699l-386.695 -688.149l57.2871 449.408l-300.75 -42.1406l114.561 533.675zM612.245 889.586z" />
    <glyph glyph-name="uniE907" unicode="&#xe907;" 
d="M545.152 888.889zM456.163 793.6zM531.25 420.132zM885.725 29.1201zM605.447 722.759l417.223 -696.319h-1021.33l278.151 511.615l208.604 -278.144l73.8916 54.3213l-130.383 176.008zM605.447 722.759z" />
    <glyph glyph-name="uniE908" unicode="&#xe908;" 
d="M1006.05 446.748zM512.007 314.396zM1251.08 456.284zM683.463 380.529q-10.1323 0 -26.0543 -4.31331t-36.7756 -11.1891q-20.8536 -6.87582 -32.1741 -9.75537l33.5781 -103.317q30.8171 11.1774 50.375 12.2949q23.2821 1.32929 58.6817 -15.9115
q35.3996 -17.2408 49.3505 -17.2408q13.9541 0 61.7593 16.2428q47.8052 16.2428 75.7416 16.9095q26.9795 0.655382 59.5351 -14.559q32.5556 -15.2144 43.5899 -12.4567q1.09332 -7.09505 1.09332 -25.2035q0 -18.1084 -0.546658 -32.6693l-0.546658 -14.5609
q-8.66675 4.12497 -22.184 10.206q-13.5172 6.08108 -41.1578 16.0137q-27.6406 9.93261 -38.5538 9.38573q-10.5642 -0.529555 -57.0227 -18.0675q-46.4585 -17.538 -64.5135 -17.538q-16.8832 0 -58.0104 11.0508q-41.1272 11.0508 -56.1654 11.0508
q-12.4425 0 -37.8027 -7.65137l35.3066 -108.644q20.0921 -1.12871 52.6322 -17.1332q32.5401 -16.0045 46.8453 -16.0045q13.9512 0 61.7568 16.2444q47.8056 16.2444 75.7441 16.9069q26.9797 0.655909 59.5353 -14.5582q32.5556 -15.2141 43.5897 -12.4564
q1.09332 -7.09549 1.09332 -25.2039q0 -18.1084 -0.546658 -32.6691l-0.546658 -14.5607q-8.66675 4.12409 -22.184 10.2041q-13.5172 6.08 -41.1578 16.0124q-27.6406 9.93239 -38.5538 9.38899q-10.5642 -0.529555 -57.0227 -18.0675q-46.4585 -17.538 -64.5135 -17.538
q-11.353 0 -26.7787 3.29811q-15.4257 3.29811 -34.6669 8.5597q-19.2411 5.26159 -29.1355 7.29941l18.126 -68.0674h-725.184l1.83496 923.477h431.225l64.1494 -209.678q44.3854 -16.7005 54.8838 -17.6992q12.4465 -1.18794 55.3137 15.3464
q42.8673 16.5343 65.0056 17.7981q23.2832 1.33305 58.6832 -15.9057q35.4 -17.2388 49.349 -17.2388q13.5015 0 61.3823 16.5723t76.1187 16.5723q26.9792 0.655373 59.5348 -14.5551q32.5556 -15.2105 43.5902 -12.4527q1.09332 -7.09549 1.09332 -25.2058
q0 -18.1104 -0.546658 -32.673l-0.546658 -14.5626q-8.66675 4.12497 -22.184 10.206q-13.5172 6.08108 -41.1578 16.0137q-27.6406 9.93261 -38.5538 9.38573q-10.5642 -0.529555 -57.0227 -18.0675q-46.4585 -17.538 -64.5135 -17.538q-16.8832 0 -58.0104 11.0508
q-41.1272 11.0508 -56.1654 11.0508q-14.7262 0 -61.1041 -15.0507q-46.3779 -15.0507 -62.892 -14.418q-12.8088 0.518033 -35.335 8.52637l41.3721 -127.317q8.77139 1.81717 47.3615 16.2994q38.5901 14.4822 59.5467 15.6791q23.2822 1.32982 58.6819 -15.9108
q35.3997 -17.2406 49.3503 -17.2406q13.9538 0 61.759 16.2426q47.8052 16.2426 75.7419 16.9087q26.9797 0.655909 59.5353 -14.5582q32.5556 -15.2141 43.5897 -12.4564q1.09332 -7.09549 1.09332 -25.2039q0 -18.1084 -0.546658 -32.6691l-0.546658 -14.5607
q-8.66675 4.12486 -22.184 10.2058q-13.5172 6.08094 -41.1578 16.0135q-27.6406 9.93258 -38.5538 9.38614q-10.5642 -0.529555 -57.0227 -18.0675q-46.4585 -17.538 -64.5135 -17.538q-16.8832 0 -58.0104 11.0503q-41.1272 11.0503 -56.1654 11.0503z" />
    <glyph glyph-name="uniE909" unicode="&#xe909;" 
d="M1006.05 446.748zM512.007 314.396zM1251.08 456.284zM832.121 469.056q63.9141 -96.2375 63.9141 -212.174q0 -104.319 -51.3887 -192.783q-51.3887 -88.4638 -139.853 -139.854q-88.4643 -51.3906 -192.787 -51.3906q-104.326 0 -192.791 51.3892
q-88.4655 51.3892 -139.855 139.853q-51.3893 88.4637 -51.3893 192.786q0 138.877 88.7178 245.489l294.977 392.775l293.575 -390.308q14.4092 -17.036 26.709 -35.5127zM469.482 -14.002l229.562 408.526l-221.063 -33.3438l93.5254 225.102l-178.546 -41.6846
l-68.0107 -316.821l178.539 25.0166z" />
    </font>
</defs>
</svg>
